<?xml version="1.0" encoding="utf-8"?>
<!-- Generator: Adobe Illustrator 17.1.0, SVG Export Plug-In . SVG Version: 6.00 Build 0)  -->
<!DOCTYPE svg PUBLIC "-//W3C//DTD SVG 1.1//EN" "http://www.w3.org/Graphics/SVG/1.1/DTD/svg11.dtd">
<svg version="1.1" id="Layer_1" xmlns="http://www.w3.org/2000/svg" xmlns:xlink="http://www.w3.org/1999/xlink" x="0px" y="0px"
	 viewBox="202.4 0 556.6 560" enable-background="new 202.4 0 556.6 560" xml:space="preserve">
<g>
	<path id="Red" fill="#C6202F" d="M621,230.6c0.5,1.3,1.8,2.1,3.1,2.1c0.4,0,0.7-0.1,1.2-0.1c1.6-0.7,2.3-2.6,1.7-4.3l-32.4-86.6
		c-0.4-1.2-1.7-2-3.3-2c-1.3,0-2.6,0.8-3.3,2l-32.4,86.6c-0.7,1.6,0.3,3.6,1.8,4.3c0.4,0,0.9,0.1,1.2,0.1c1.3,0,2.5-0.8,3.1-2.1
		l8.3-22h42.6L621,230.6z M572.6,202.1l18.9-50.2l18.8,50.2H572.6z M385.9,226.3h-44.7v-83.6c0-1.7-1.4-3.3-3.4-3.3
		c-1.7,0-3.3,1.4-3.3,3.3v87c0,1.7,1.4,3.3,3.3,3.3h48.1c1.8,0,3.4-1.4,3.4-3.3C389.1,227.8,387.7,226.3,385.9,226.3z M498.6,233
		c9.4,0,17.7-2.9,24-7.3c6.3-4.6,10.6-11.2,10.6-18.6c0-7.4-4.2-13.6-10.3-17.6c-6.1-4.2-14.5-6.8-23.7-8.6h-0.3
		c-8.5-1.6-15.4-3.9-20.1-7c-4.7-3.3-6.8-6.6-6.9-11.3c0-4.8,2.6-9.4,7.3-12.8c4.7-3.4,11.5-5.6,19-5.6c10.3,0,18.2,5.1,25.7,9.9
		c1.3,0.9,3.3,0.5,4-0.8c0.9-1.4,0.5-3.3-0.8-4.2c-7.3-4.8-16.5-10.8-28.8-10.8c-8.9,0-16.7,2.5-22.5,6.8
		c-5.9,4.3-9.8,10.4-9.8,17.5c0,6.9,3.9,12.5,9.6,16.3c5.7,3.9,13.3,6.3,22,7.8h0.3c9.1,1.7,16.5,4.3,21.6,7.6
		c5.1,3.5,7.6,7.4,7.6,12.8c0,5.2-2.9,10.2-7.9,13.9c-5.1,3.8-12.4,6.1-20.6,6.1c-12.1,0.1-23.7-6.4-30.7-12c-1.2-1-3.1-0.9-4.2,0.4
		c-0.9,1.2-0.8,3.1,0.4,4.2C471.9,225.5,484.2,232.8,498.6,233z M426.5,232.8c1.8,0,3.4-1.4,3.4-3.3v-87c0-1.7-1.4-3.3-3.4-3.3
		c-1.7,0-3.3,1.4-3.3,3.3v87C423.3,231.3,424.7,232.8,426.5,232.8z M371.5,303.8c-0.8-0.7-2-0.5-2.5,0.3l-16.2,22.1l-16.2-22.1
		c-0.5-0.8-1.7-0.9-2.5-0.3c-0.8,0.5-0.9,1.7-0.4,2.5l17.3,23.7V353c0,0.9,0.8,1.8,1.8,1.8s1.8-0.8,1.8-1.8v-23.2l17.2-23.5
		C372.4,305.5,372.3,304.4,371.5,303.8z M438,328.6c-0.1-14.5-10.9-26.2-24.6-26.2c-13.9,0-24.9,11.7-24.9,26.2
		c0.1,14.5,10.9,26.2,24.9,26.2C427,354.8,437.9,343.1,438,328.6z M392,328.6c0-12.8,9.6-22.5,21.2-22.5c11.3,0,21,9.8,21,22.5
		c-0.1,12.6-9.6,22.5-21,22.5C401.5,351.1,392,341.2,392,328.6z M560.2,303.7c-0.9,0-1.8,0.8-1.8,1.8v42l-31.3-43.4
		c-0.5-0.8-1.7-0.9-2.5-0.4c-0.7,0.5-0.9,1.3-0.7,2V353c0,0.9,0.8,1.8,1.8,1.8c0.9,0,1.8-0.8,1.8-1.8v-42.2l31,43
		c0.1,0.1,0.3,0.3,0.3,0.3c0.4,0.4,0.8,0.7,1.4,0.7c1,0,1.8-0.8,1.8-1.8v-47.6C562,304.5,561.2,303.7,560.2,303.7z M626.6,327.9
		h-16.2c-1,0-1.8,0.8-1.8,1.8s0.8,1.8,1.8,1.8h14.1v15.1c-3.8,2.9-8.6,4.4-13.7,4.4c-12.9,0-23.2-10-23.2-22.7
		c0-12.4,10.3-22.5,23.2-22.5c5.5,0,10.6,2,14.3,5c0.9,0.7,2,0.4,2.6-0.3c0.7-0.8,0.4-2-0.3-2.5c-4.7-3.6-10.3-5.9-16.7-5.9
		c-14.9,0-26.8,11.7-26.8,26.1c0,14.6,12,26.2,26.8,26.2c6.4,0,12.1-2.1,16.7-5.7c0.4-0.3,0.7-0.8,0.7-1.3v-18
		C628.3,328.9,627.6,328.1,626.6,327.9z M479.3,354.8c11.6,0,21-9.4,21-20.8V305c0-0.9-0.8-1.8-1.8-1.8c-0.9,0-1.8,0.8-1.8,1.8v28.9
		c0,9.5-7.7,17.2-17.3,17.2c-9.4-0.1-17.2-7.7-17.2-17.2V305c0-0.9-0.8-1.8-1.8-1.8c-0.9,0-1.8,0.8-1.8,1.8v28.9
		C458.6,345.4,467.9,354.8,479.3,354.8z M510.9,496.5c-0.9,0-1.7,0.3-2.3,0.8c0.8,0.4,1.8,0.8,2.9,1c1.7,0.4,3.1,0.3,4.2-0.1
		c-0.4-0.3-0.9-0.5-1.6-0.8C513.4,496.9,512.2,496.5,510.9,496.5z M494.3,427.8c0.1-0.1,0.3-0.3,0.3-0.4c-0.7,0.3-1.4,0.4-2.2,0.4
		c-1.3,0-2.6-0.4-3.8-0.7c-0.4-0.1-0.8-0.3-1-0.4c-1.4-0.4-2.9-0.9-4.2-0.9c-0.3,0-0.7,0-0.9,0.1c2,1.3,5.5,3.3,8.3,3.3
		C492.3,429.1,493.5,428.7,494.3,427.8z M499.7,517.3c-0.9-0.4-1.7-0.9-2.5-1.3c-1.3-0.8-2.3-1.4-3-2.2c0.1,0.8,0.4,1.6,0.8,2.1
		c1,2.1,2.7,3.4,4.3,4.7c0.3,0.1,0.5,0.4,0.7,0.5c2.5,2,5.2,4,5.9,7.8C508.7,521.7,504.2,519.5,499.7,517.3z M455.6,537.7
		c0.4-0.9,1-1.6,1.6-2.1c0.7-0.5,1.2-1,1.6-2.1c0.7-1.6,0.4-3.1,0.3-4.8c-0.1-1-0.3-2.1-0.3-3.3c0-0.5,0.4-1.2,0.7-1.8
		c0.5-0.9,0.9-1.8,0.3-2.2C456.1,523.6,454.8,529,455.6,537.7z M496.9,410.3c-0.1,0-0.3,0-0.3,0c-0.3,0-0.3,0.1-0.3,0.4
		s-0.1,0.7-0.5,0.7c-0.1,0-0.3,0-0.4-0.1c0,0-0.1,0-0.1-0.1c0-1.4-0.3-2.3-0.7-3c-0.1,1.2-0.9,1.8-2.2,2c0,0-0.1,0-0.1-0.1
		c0-0.1,0-0.3,0-0.4c0-0.4,0-0.7-0.3-0.8c-0.3,0.7-1.6,1.4-2.2,1.4c-0.3,0-0.4-0.1-0.5-0.3v-0.1c1.3-2.1,2.7-4.8,1.4-6.8
		c-0.5,2-2.2,2.6-3.8,3.4c-0.8,0.4-1.4,0.7-2.1,1h-0.1c0,0-0.1,0-0.1-0.1c-0.3-3.8-1.8-6.4-3.3-8.6c-0.1,0.5,0.1,1,0.3,1.6
		c0.3,0.7,0.5,1.2-0.3,1.7h-0.1c0,0,0,0-0.1-0.1c0-0.1-0.1-0.1-0.1-0.1c-0.1,0-0.4,0.1-0.5,0.3h-0.1v-0.1c0.3-0.1,0.7-1.3,0.4-2
		c0-0.1-0.1-0.3-0.3-0.4c-0.1,0.5-0.4,1-0.8,1.7c-0.1,0.1-0.1,0.3-0.3,0.4c0,0.1-0.1,0.1-0.1,0.3c-0.7,1-1.4,2.1-2.2,3
		c-0.3,0.4-0.5,0.7-0.9,1H476c-1.2-0.5-1.8-1.4-2.5-2.5c-0.5-0.8-1.2-1.6-2-2.1c0,0.8,0.1,1.6,0.3,2.2c0.3,1.6,0.5,3-0.7,3.9
		c0,0,0,0-0.1,0h-0.1c-0.5-0.7-1.3-1.3-2-1.8c-0.9-0.8-2-1.6-2.6-2.6c-0.7,1.8-0.4,4.2-0.1,6.5c0.1,1.2,0.3,2.3,0.3,3.4
		c0,0.9-0.1,1.6-0.3,2.1c0.9-0.7,2-1.2,3-1.7c0.8-0.4,1.4-0.7,2.2-1h0.1c0.4,0.7,1.6,0.9,3.3,0.9s3.6-0.4,4.8-0.5h0.3
		c0,0,0.1,0,0.1,0.1v0.1c-0.3,0.3-0.4,0.7-0.4,1.2c0,0.5,0.1,0.9,0.4,1.2c0.5,0,1,0,1.4,0c4.4,0,7.2,1.8,9.8,3.5
		c0.3,0.3,0.7,0.4,0.9,0.7c0-0.4,0-0.9,0-1.4c0.3-2.7,2-4.8,3.1-5.2h0.1v0.1l-0.3,0.1c-1.6,2.5-2.1,3.1-1.2,5.5
		c-0.1-1.6,0.7-2.7,1.3-3.9C496.1,413.4,497,412.1,496.9,410.3z M481.5,406.6c-0.1,0.5-0.4,1-0.7,1.4c-0.1,0.1-0.1,0.3-0.3,0.4
		l-0.1,0.1l0,0c-0.5-0.1-0.8-0.4-0.9-0.8c-0.1-0.8,0.4-2,0.9-2.3c0,0,0,0,0.1,0c0.5,0,0.9,0.3,1,0.7
		C481.5,406.1,481.5,406.4,481.5,406.6z M476.2,420.3c1,0,2-0.1,2.9-0.1c1-0.1,2-0.1,2.7-0.1c2.2,0,3.6,0.4,4.7,1.4v0.1
		c0,0,0,0.1-0.1,0.1c-0.1,0-0.3,0-0.4,0c-0.4,0-0.7,0-0.8,0.3c0.4,0.1,0.9,0.3,1.4,0.3c1.3,0,2.6-0.5,3.6-0.9c0.4-0.1,0.7-0.3,1-0.4
		c0.1,0,0.3-0.1,0.3-0.1c-4.3-3.1-8.7-4.8-13.7-5.3c0,0-0.1,0-0.1-0.1c0-0.5,0.1-0.9,0.3-1.2h-0.1c-0.5,0-1,0-1.6,0
		c-0.5,0-1,0-1.6,0c-3.3,0-6.5,0.1-8.1,2c0.3,0.3,0.7,0.7,1.4,0.9c0.8,0.4,1.8,0.8,2.9,1c1.3,0.4,2.6,0.9,3.1,1.3
		c0.1,0.1,0.3,0.4,0.3,0.5s-0.1,0.3-0.3,0.4C474.7,420.3,475.4,420.3,476.2,420.3z M471.6,417.1
		C471.5,417.1,471.5,416.9,471.6,417.1c-0.1-0.1,0-0.3,0-0.3c2-0.4,4-0.5,6.4-0.3c1.4,0.3,3,0.7,4.6,1.2c1.6,0.5,3.1,1.3,4.4,2.1
		c0,0,0.1,0.1,0,0.1l-0.1,0.1l0,0c-1.6-0.4-3.5-0.7-5.5-0.9C478,418.6,474.5,418.2,471.6,417.1z M540.7,425.5h-0.1v-0.1
		c0.7-1,2-2,3.1-2.7c1.4-1,2.7-2.1,3.1-3.1c-1.3,1.2-3,2.2-4.6,3.1c-1,0.7-2.2,1.3-3.3,2.1h-0.1v-0.1c1.7-1.8,3.6-3.4,5.6-4.8
		c2.9-2.2,5.9-4.6,7.8-7.9c-0.9,0.4-1.6,1-2.3,1.7c-0.8,0.8-1.6,1.6-2.9,2h-0.1v-0.1c0.8-1.3,1.8-2.2,3-3.1c2-1.7,3.8-3.3,3.8-6.6
		c-2.5,2.1-4.8,4.4-7,6.6c-4.6,4.7-9.4,9.5-16,12.2h-0.1v-0.1c0.3-0.9,1.2-1.4,2-2c1-0.7,2-1,1.4-2.2v-0.1
		c4.7-2.5,10.9-5.7,12.9-10.9c-0.4,0.4-0.9,0.8-1.4,1.2c-2,1.7-4.4,3.9-7.2,5.7c-3.8,2.5-8.7,5.3-10.8,5.3c-0.3,0-0.4,0-0.7-0.1
		c-0.3,4-2.2,6.5-4,8.9c2.5-0.5,4.6-2,6.6-3.3c1.7-1.2,3.3-2.3,5-2.6h0.1v0.1c-1.7,3.4-3.3,6.3-5,9c1.2-0.4,2.2-0.9,3.3-1.4
		c0.8-0.4,1.6-0.8,2.3-1h0.1v0.1c-1.6,1.3-3.4,2.3-5.3,3.4c-2.2,1.2-4.6,2.5-6.1,4.3h-0.1c0,0-0.1-0.1,0-0.1c0.1-0.4,0.4-0.7,0.8-1
		c0.4-0.4,0.8-0.8,0.8-1.2c0,0,0-0.1-0.1-0.1c-0.8,1.2-2,2-3.1,2.7c-0.7,0.4-1.3,0.9-2,1.4h-0.1v-0.1c1.3-1.6,3-3.1,4.6-4.6
		c2.7-2.5,5.6-5,6.6-7.9c-2.6,3-5.7,6-8.6,6.4c-0.1,0-0.1,0-0.1-0.1c0,0,0-0.1,0.1-0.1c2.3-1,3.9-2.9,5.2-4.8
		c-3.1,0.8-5.6,2.6-8.2,4.3c-2.2,1.6-4.4,3.1-6.8,3.6c-0.1,0-0.1,0-0.1-0.1c0,0,0-0.1,0.1-0.1c2.1-0.9,3.6-2.3,5.2-3.9
		c-0.4,0.1-0.7,0.1-1,0.3c-0.9,0.3-1.8,0.5-2.7,0.5c-0.7,0-1.3-0.1-1.7-0.5V433l0.1-0.1l0,0h0.1c4,0,7.7-1.3,9.8-3.5
		c1.4-1.4,2.1-3.3,2.2-5.1c-1.3,2.6-4,5.3-5.7,6h-0.1v-0.1c1.6-2,3.3-4.2,4.8-6.4c-1.2,0.5-2.2,1.2-3.3,1.8
		c-0.5,0.3-0.9,0.7-1.4,0.9h-0.1v-0.1c1.3-1.6,3-2.7,4.7-3.9c1.3-0.9,2.7-1.8,3.9-3c-2.2,0.8-4.4,2.5-6.8,4.3c-3.9,3-7.9,6-12.9,6
		c-0.9,0-1.7-0.1-2.6-0.3c0.4,11.5-1.4,17.7-5.5,18.5c-0.8,2.7-1.6,7.7,0.8,9.5v0.1c0,0,0,0.1-0.1,0.1h-0.1c-0.4,0-0.8-0.1-1-0.3
		c0.3,0.9,0.8,1.6,1.4,2.2l0.1,0.1c0.7,0.8,1.4,1.6,1.7,2.9v0.1c0,0,0,0-0.1,0c-0.4,0-0.9-0.4-1.3-0.7c-0.3-0.3-0.5-0.4-0.7-0.4
		c0,0,0,0-0.1,0.1c0.7,0.4,1.2,0.9,1.7,1.6c1,1.4,1.3,3.3,0.9,5.1c0,0.1,0,0.1-0.1,0.3v0.1c-0.8,2.7-2.9,4.4-5.2,4.4
		c-0.5,0-1-0.1-1.7-0.3l0,0c-0.3-0.4-0.4-0.7-0.4-0.8c0.1-0.3,0.5-0.4,0.9-0.5c0.5-0.1,1-0.3,1.2-0.8c-1.4-1-2.1-2.6-2.7-4.4
		l-0.1-0.4c-0.1-0.4-0.3-0.8-0.4-1V465c0,0,0,0,0.1,0c0.1,0,0.4-0.1,0.5-0.1c0.4,0,0.8,0.1,1,0.3c0.1,0,0.4,0.1,0.5,0.1
		c0.1,0,0.3,0,0.4-0.5c-0.7-0.5-1.2-1.2-1.7-1.7c-0.4-0.5-0.8-0.9-1.3-1.4c-0.4-0.5-0.8-0.9-1.3-1.4v-0.1c0,0,0-0.1,0.1-0.1l0,0
		c0.1,0,0.3,0,0.5,0c0.1,0,0.3,0,0.5,0c0.8,0,1.3-0.1,1.4-0.5l0,0l0,0c-1.8-0.4-2.9-1.4-3.4-3c0,0,0-0.1,0.1-0.1c0.3-0.1,0.7,0,1,0
		c0.3,0,0.4,0,0.5,0c0.3,0,0.4,0,0.4-0.1V456c-0.3-0.3-0.5-0.4-0.8-0.7c-0.9-0.7-1.8-1.4-2.2-2.7c0-0.1,0-0.1,0.1-0.1
		c0.3-0.1,0.8,0,1.3,0c0.3,0,0.5,0,0.8,0c0.5,0,0.7-0.1,0.8-0.3c-2.2-1.8-5-6.9-2.5-10.7c0,0,0.1-0.1,0.1,0c0.4,0.3,0.7,0.7,0.9,1
		c0.1,0.4,0.4,0.7,0.7,0.9c1-3.6-0.4-6.8-1.7-9v-0.1c0,0,0.1-0.1,0.1,0c0.3,0,0.7,0,0.9,0c2.1,0,4-0.8,5.1-2.1
		c0.5-0.7,0.8-1.6,0.7-2.3c-0.7,0.4-1.3,0.7-2,0.9c-1,0.4-2,0.5-3,0.5c-3.1,0-5.9-1.6-8.5-3c-2.3-1.3-4.6-2.6-6.8-2.6h-0.1
		c-0.1-0.3-0.3-0.4-0.5-0.5c-0.4-0.5-0.9-0.9-1.7-1.3c-2.2-1.3-5.5-2.2-8.3-2.1c-3.3,0.1-5.3,1.4-5.7,3.5c0.3-0.1,0.7-0.3,1-0.3
		c0.3,0,0.7,0,1,0c0.5,0,1.2,0.1,1.6,0c0,0,0,0,0.1,0c2.2,0.9,3.5,2.7,4.8,4.7c0.9,1.3,2,2.7,3.3,3.8c0.8,0.7,1.6,1,2.5,1.4
		c2,0.9,3.8,1.8,3.5,4.6c0,0,0,0.1-0.1,0.1H479l-0.4-0.4c-5.3-5-11.3-10.6-20.3-10.6c-0.1,0-0.1,0-0.3,0c1.8,0.5,2.7,2,3.5,3.3
		c0.4,0.7,0.9,1.3,1.4,2c0-0.1,0-0.4,0-0.7c0-0.5-0.1-0.9,0.1-1.2c0.1-0.1,0.3-0.1,0.5-0.1c4.7,1.4,10.6,4.7,12.8,8.1c0,0,0,0,0,0.1
		s0,0.1-0.1,0.1l0,0c0,0,0,0-0.1,0c-0.9-0.5-1.8-1-2.9-1.4c-1-0.4-2.1-0.9-3-1.4c-0.1,0.7,0.5,1.2,0.9,1.6c0.3,0.3,0.5,0.4,0.5,0.7
		c0,0.1-0.1,0.3-0.3,0.3c0,0,0,0-0.1,0c-2.2-0.4-3.6-1.8-5-3c-0.5-0.5-1-1-1.6-1.4c0.1,3.9,2.6,5.2,5.2,6.8c2,1,3.9,2.2,4.8,4.4l0,0
		c0.1,0.8-0.4,1-0.9,1.3c-0.4,0.1-0.7,0.3-0.8,0.8c1,0,1.7,0.3,2.1,0.9v0.1c-0.5,0.8-1.7,0.9-2.7,1.2c-0.7,0.1-1.3,0.3-1.8,0.5
		c0.5,0.4,1.2,0.7,1.8,0.8c0.7,0.3,1.2,0.4,1.7,0.8c0,0,0.1,0.1,0,0.1c0,0,0,0.1-0.1,0.1c-0.9,0-1.6,0.4-2.3,0.7
		c-0.8,0.4-1.6,0.7-2.7,0.7c-0.3,0-0.5,0-0.8,0c0,0.3,0,0.4,0.1,0.7c0.1,0.3,0.5,0.3,0.9,0.4c0.5,0.1,1.2,0.3,1.2,1v0.1
		c-0.8,0.7-1.6,1.3-2.2,2c-0.5,0.5-1.2,1.2-1.8,1.7c-0.4,0.4-0.9,0.7-1.3,0.9c0.3,0.1,0.8,0.1,1.2,0.1c0.7,0,1.4,0.1,1.7,0.7v0.1
		c-0.4,0.5-0.8,1-1.2,1.6l-0.1,0.1c-1.2,1.4-2.3,3.1-4,4.4l0,0h0.1c0.3,0,0.7,0,1,0c0.4,0,0.8-0.1,1.2-0.1c0.4,0,0.9-0.1,1.2-0.1
		s0.5,0,0.7,0.3c0,0,0,0,0,0.1c-0.4,1.3-1.2,2.2-2,3c-0.5,0.7-1,1.2-1.4,2c0.1,0,0.3,0.1,0.4,0.1c0.4,0,0.8-0.1,1.2-0.3
		c0.3-0.1,0.5-0.3,0.8-0.3s0.5,0.1,0.5,0.4l0,0c0.1,1-0.5,1.4-1.2,1.7c-0.1,0-0.1,0.1-0.3,0.1c0,0,0,0-0.1,0c-2.7-0.5-5-2.6-5.5-5.5
		c0-0.1,0-0.3,0-0.4l0,0c-0.3-1.8,0.1-3.6,1-5.1c0.4-0.5,0.8-1,1.3-1.4c-0.3,0-0.7,0.3-0.9,0.5c-0.3,0.1-0.4,0.4-0.7,0.4
		s-0.4-0.3-0.4-0.4c0,0,0,0,0-0.1c0.3-0.7,0.9-1.3,1.4-2c0.3-0.3,0.4-0.4,0.7-0.7c0.7-0.7,1-1.4,1-2.1c-0.1,0.3-0.4,0.4-0.5,0.4
		c-0.1,0-0.3,0-0.4-0.4v-0.1c2.3-2,1.7-6.9,0.8-9.5c-5.9-1.2-5.6-13.9-5.5-18.2c-0.1-0.1-0.3-0.3-0.4-0.3c-0.1,0-0.4,0.1-0.7,0.3
		c-0.4,0.3-0.8,0.5-1.4,0.5c-3.9-0.9-7.3-2.5-11.1-5.1c-0.7-0.5-1.4-1-2.2-1.7c-2.3-1.8-4.8-3.8-6.6-3.8c0.5,0.4,1.4,1,2.3,1.6
		c2.3,1.4,5.2,3.3,5.9,5c0,0,0,0,0,0.1s0,0.1-0.1,0.1l0,0c0,0,0,0-0.1,0c-0.1-0.1-0.4-0.3-0.5-0.5c-1-0.9-2.3-2.1-3.4-2.1
		c-0.1,0-0.3,0-0.4,0c2.1,2.2,3.6,4.3,5,6.6c0,0,0,0,0,0.1c0,0.1,0,0.1-0.1,0.1l0,0c0,0,0,0-0.1,0c-2.3-1.8-4.3-4.2-6-6.4
		c1.2,5.6,5.1,8.5,12.1,8.7c0,0,0.1,0,0.1,0.1v0.1c-0.4,0.4-0.8,0.5-1.4,0.5s-1.3-0.3-2.1-0.4c-0.8-0.3-1.6-0.5-2-0.3
		c0.8,0.7,1.6,1.2,2.3,1.7c1,0.8,2.1,1.6,3,2.3c0,0,0.1,0,0.1,0.1c0,0.1,0,0.1-0.1,0.1l0,0l0,0c-2.2-0.9-4.3-2.3-6.3-3.8
		c-2.9-2.1-5.5-3.9-8.7-4.3c0.5,0.7,1.3,1.4,2.1,2.1c1.2,1,2.3,2,2.3,2.9l0,0c0,0.1,0,0.1-0.1,0.1l0,0c0,0,0,0-0.1,0
		c-1.4-0.9-2.9-2.2-4.3-3.5c-1.4-1.3-2.7-2.5-3.9-3.1c1.6,2.6,3.9,4.8,6.3,7c2,1.8,3.8,3.5,5,5.3c0,0,0,0,0,0.1c0,0.1,0,0.1-0.1,0.1
		h-0.1c-1.2-1.3-3.5-3.3-4.7-3.6c0.1,0.1,0.4,0.4,0.5,0.5c0.4,0.4,0.9,0.9,0.8,1.2c0,0.1-0.1,0.3-0.3,0.3h-0.1
		c-0.9-2.1-3.5-3.3-5.9-4.3c-2.1-0.9-4-1.8-4.7-3.3v-0.1h0.1c1.6,1,3.3,1.7,5.2,2.5c-0.5-1-1.2-2.1-1.8-3.1c-1.2-2-2.3-4-3.1-6.4
		v-0.1h0.1c1.4,0.8,2.7,1.7,4,2.5c2.3,1.4,4.7,3,7.3,4.2c-2-2.7-3.3-5.7-4.3-8.9c-0.1,0.3-0.4,0.5-0.9,0.4l0,0
		c-1.2-0.8-2.3-1.4-3.5-2.2c-5.2-3.3-10.7-6.5-15.4-10.6c2.1,3.9,5.6,6.3,9,8.5c3,2,5.7,3.8,7.2,6.5c0,0,0,0,0,0.1s0,0.1-0.1,0.1
		l0,0l0,0c-6.4-3-11.1-7.7-15.8-12.4c-2.2-2.2-4.6-4.6-6.9-6.5c0,7.2,4.7,10.8,8.9,13.9c2.1,1.7,4.2,3.3,5.5,5.1c0,0,0,0,0,0.1
		c0,0.1,0,0.1-0.1,0.1l0,0c0,0,0,0-0.1,0c-2.6-2-5.3-3.8-8.1-5.6c-4.8-3.1-9.6-6.3-13.7-10.3v0.1c4.4,12.4,15.4,18.2,25.8,23.8
		c2,1,3.9,2.1,5.9,3.1c0,0,0.1,0,0.1,0.1c0,0.1,0,0.1-0.1,0.1l0,0c-5.5-0.3-9.8-3.6-13.9-6.9c-3.1-2.5-6.1-4.7-9.4-5.7
		c4,5.5,10.3,8.9,16.4,12.1c1.4,0.8,3,1.6,4.4,2.3c0,0,0.1,0,0.1,0.1c0,0.1,0,0.1-0.1,0.1l0,0l0,0c-5.5-1.2-9.9-4-14.1-6.9
		c-3.4-2.2-6.5-4.4-10.2-5.6c4.4,3,8.9,5.9,13.7,8.5c0,0,0.1,0,0.1,0.1c0,0.1,0,0.1-0.1,0.1l0,0l0,0c-3.4-0.7-6.4-2.3-9.3-3.9
		c-2.5-1.4-5-2.6-7.3-3.3c6.3,8.9,17.3,13.2,28.1,17.5c1.2,0.4,2.2,0.9,3.4,1.3c0,0,0.1,0,0.1,0.1s-0.1,0.1-0.1,0.1l0,0
		c-4-0.7-7.7-1.6-11.1-3l-0.1-0.1c0,0,0-0.1,0.1-0.1s0.3,0,0.4,0c0.4,0,0.7,0,0.8-0.1c-2.3-0.4-4.8-1.3-7.2-2.2
		c-2.5-0.9-4.8-1.8-6.9-2c3.8,5.7,11.2,8.1,18.4,10.4l0.9,0.3l0.1,0.1c0,0,0,0.1-0.1,0.1c-2.3,0.1-4.6-0.4-6.8-0.9
		c-1.7-0.4-3.3-0.8-4.8-0.8c-0.3,0-0.7,0-0.9,0c3,4.3,9,5.7,14.7,7.2c1.8,0.5,3.6,0.9,5.5,1.4l0.1,0.1c0,0,0,0.1-0.1,0.1
		c-3.8,0-7.7-0.7-11.1-1.3c-2-0.4-3.9-0.7-5.5-0.8c2.3,3.1,6.1,4.7,11.2,6c0.9,0.3,1.8,0.5,2.9,0.8c1.2,0.3,2.3,0.7,3.5,0.9l0.1,0.1
		c0,0,0,0.1-0.1,0.1c-1.7,0.1-3.4,0.3-5.1,0.4c-2.7,0.3-5.5,0.4-8.1,0.8c-2,0.3-3.6,0.5-5.1,0.9c3.3,1.4,7.8,1.7,13.6,2
		c1.7,0.1,3.3,0.3,4.8,0.4c1.7,0.1,3.4,0.4,4.8,0.4c2.2,0,3.6-0.4,4.4-1.4c-1.4-0.4-2.9-0.9-3.9-1.6c-1.4-0.9-2.5-2-3.1-3.4l0,0
		c-0.4,0-0.8,0-1,0c-3.3,0-5.3-1.2-7.3-2.2c0,0-0.1-0.1,0-0.1l0.1-0.1c1.3,0.3,2.5,0.5,3.6,0.8s2.5,0.7,3.9,0.9
		c0.1-0.3-0.1-0.5-0.3-0.8c-0.1-0.3-0.3-0.4-0.3-0.7c0-0.1,0.3-0.3,0.5-0.4c0,0,0,0,0.1,0c0.9,0.4,2.1,0.5,3.3,0.8
		c0.8,0.1,1.7,0.3,2.3,0.4c-0.9-1.7-3.1-2.5-4.4-2.6c0,0-0.1,0-0.1-0.1c0,0,0-0.1,0.1-0.1c0.1,0,0.3,0,0.3,0c0.3,0,0.4-0.1,0.4-0.1
		c-0.8-0.5-1.6-0.9-2.3-1.3c-1.2-0.7-2.5-1.3-3.5-2.1v-0.1c0,0,0-0.1,0.1-0.1l0,0c0.3,0,0.4,0.1,0.7,0.3c0.1,0.1,0.3,0.3,0.5,0.3
		l0,0c-0.3-0.8-1.3-1-2.2-1.2c-0.9-0.3-2-0.4-2.3-1.2v-0.1c0,0,0,0,0.1,0c0.3,0,0.5,0.1,0.9,0.3c0.4,0.1,0.8,0.3,1.2,0.3
		c0.3,0,0.5-0.1,0.7-0.4c-0.5-0.3-0.8-0.9-0.8-1.7v-0.1c0,0,0,0,0.1,0c0.3,0,0.5,0.1,0.9,0.4c0.4,0.3,0.8,0.4,1.2,0.4
		c0.1,0,0.3,0,0.4-0.1c-0.8-0.5-1.6-1-1.6-1.6c0-0.1,0.1-0.3,0.4-0.4h0.1c0.8,0.5,1.8,0.8,2.9,1c1.3,0.3,2.7,0.5,3.4,1.6v0.1
		c0,0,0,0.1-0.1,0.1s-0.4,0.1-0.5,0.1c-0.4,0-0.9-0.1-1.3-0.3c-0.3-0.1-0.7-0.3-0.9-0.3s-0.4,0.1-0.7,0.4c0.5,1,1.6,1.4,2.6,2
		c0.9,0.4,1.8,0.7,2.3,1.4v0.1c0,0,0,0.1-0.1,0.1l0,0c-0.9,0-2-0.4-2.9-0.8c-0.8-0.4-1.6-0.7-2.2-0.7c-0.3,0-0.4,0-0.7,0.1
		c1.2,1.3,2.7,2.2,4.3,3.1c2.1,1.2,4.3,2.5,5.3,4.7c0,0,0,0,0,0.1v0.1c0,0,0,0-0.1,0c-0.3,0-0.7,0-1.2,0c-0.4,0-0.9-0.1-1.3-0.3
		c-0.7-0.1-1.4-0.3-2.1-0.3s-1.2,0.1-1.7,0.4c0.8,1.4,2.1,2.5,3.8,3.3c1.4,0.7,3.1,1,5.3,1.3c0,0,0.1,0,0.1,0.1v0.1
		c-0.7,1-2.2,1.6-3.6,2.1c-1.3,0.5-2.6,0.9-2.7,1.7c0.1,0.5,1.4,0.8,2.7,1c1,0.3,2.1,0.4,2.9,0.8c0.3,0.1,0.4,0.3,0.7,0.4
		c0.1,0.1,0.3,0.1,0.4,0.3l0,0c0,0,0,0,0.1,0.1v0.1c0,0,0,0.1-0.1,0.1c-0.1,0-0.3,0-0.4,0c-0.1,0-0.3,0-0.3,0s0.1,0.1,0.3,0.3
		c0.3,0.3,0.8,0.8,0.5,1.3l0,0c-0.8,0.8-2,1.2-3,1.6c-0.8,0.3-1.7,0.5-2.3,0.9c1.3,1,4,1,5.7,1.2c0.3,0,0.7,0,0.8,0
		c0.1,0,0.1,0,0.1,0.1s0,0.1-0.1,0.1c-0.1,0-0.1,0-0.1,0s0.1,0.1,0.4,0.1h0.1h0.1v0.1c-0.3,1.3-1.2,1.8-2.1,2.5
		c-0.4,0.3-0.8,0.5-1.2,0.9c1.3,0.3,2.9,0.4,4.6,0.4c1.8,0,3.5-0.1,4.8-0.5h0.1v0.1c-0.8,1-1.7,2.1-3.5,2.2c0,0-0.1,0-0.1-0.1
		c-0.1-0.4,0.3-0.7,0.5-0.9c0.1-0.1,0.3-0.1,0.3-0.3c0,0-0.1,0-0.3-0.1c-1.3,0.7-2.9,1-4.4,1c-2.6,0-5-0.9-6.3-2.3v-0.1
		c0,0,0.1,0,0.1-0.1c2.3,0.1,3.9-0.5,4.8-2c-0.4-0.1-0.8-0.1-1.2-0.3c-2.1-0.5-4.2-0.9-5-2.9v-0.1c0-0.1-0.1-0.1-0.1-0.3V477
		c0,0,0,0,0.1,0c0.3,0,0.5-0.1,0.8-0.1l0,0c2.1-0.3,3.8-0.5,4.4-1.8c-0.1-0.1-0.4-0.1-0.7-0.3c-0.4-0.1-0.8-0.1-1.2-0.3h-0.3
		c-0.8-0.1-1.6-0.3-2.1-0.7c0,0,0,0,0-0.1c0,0,0,0,0-0.1c0-0.3,0.3-0.4,0.5-0.5c0.1,0,0.3-0.1,0.3-0.1c-1.4-0.5-3-0.8-4.7-0.9
		c-1.4-0.1-2.9-0.4-4-0.7c0,0-0.1,0-0.1-0.1v-0.1c0.4-0.4,1.2-0.4,2-0.4h0.3c0.8,0,1.4,0,1.8-0.3c-2-0.8-4.4-1.2-7-1.2
		c-6.3,0-12.1,2.1-14.6,5.2c0.9,0.1,2,0.1,3,0.1c2,0,3.9-0.1,5.9-0.3c1.8-0.1,3.6-0.3,5.3-0.3c1.4,0,2.7,0.1,3.8,0.3
		c0.8,0.1,1.4,0.3,2.1,0.5c0,0,0.1,0,0.1,0.1s0,0.1-0.1,0.1l0,0c-8.1-0.3-13.4,1.6-16.2,5.6c2.9-0.8,6.5-1.8,10.2-2c0.7,0,1.3,0,2,0
		c1.4,0,2.6,0.1,3.6,0.4c0,0,0.1,0,0.1,0.1c0,0,0,0.1-0.1,0.1c-0.5,0.3-1,0.4-1.7,0.7c-2.5,0.9-5,1.7-6.3,3.8
		c1.2-0.3,2.3-0.5,3.5-0.9h0.1c2-0.7,4-1.2,6.6-1.2h0.1v0.1c-0.4,0.9-1.4,1.7-2.3,2.5c-1.6,1.3-3.1,2.6-2.3,4.8l0.1-0.1
		c2.2-1.8,5.2-4.2,8.6-4.2c0.5,0,0.9,0,1.4,0.1c0,0,0.1,0,0.1,0.1c0,0,0,0.1-0.1,0.1c-1,0.5-2.5,1.7-3,3c-0.3,0.7-0.3,1.2,0,1.7
		c2.6-2.9,7.7-3,11.9-3.1c0.9,0,1.7,0,2.5-0.1c0,0,0.1,0,0.1,0.1v0.1c-3,3.1-8.5,3.9-13.7,4.7c-3.3,0.5-6.8,1-9.5,2.1
		c-1.4,0.5-2.5,1.2-3.4,2c-0.4,0.3-0.7,0.5-0.9,0.9c0.4-0.1,0.7-0.3,1-0.4c1.6-0.5,3.1-1,5-1.3c2.3-0.4,4.7-0.4,6.9-0.5
		c0.5,0,1,0,1.6,0c2.3,0,4.7-0.1,7-0.3c2.1-0.3,3.8-0.5,5.3-1h0.1v0.1c-0.1,0.9-1.2,1.4-2.1,2c-0.9,0.5-1.4,0.8-1.3,1.2l0.5-0.1
		c2.1-0.8,4.3-1.6,6.6-2.3h0.1v0.1c-1.3,2-3.6,2.6-6.1,3.3c-0.9,0.3-1.8,0.5-2.6,0.9c0.4,0.1,1,0.1,1.6,0.3c0.8,0,1.7,0,2.1,0.5v0.1
		c-3.1,2.6-8.1,5.6-14.1,5.6c-0.4,0-0.8,0-1.2,0c1.6,0.9,3.8,1,6,1c0.7,0,1.2,0,1.8,0s1.2,0,1.8,0c0,0,0.1,0,0.1,0.1v0.1
		c-2,2.6-5.1,3.8-9.4,3.4c0,0,0,0-0.1,0c-0.9-0.7-1.8-1.8-2.9-3.1c-2.3-2.9-5.1-6-7.8-6c-1.3,0-2.5,0.7-3.6,2
		c0.3-0.1,0.7-0.3,0.9-0.4c0.7-0.3,1.2-0.5,1.8-0.5c0.3,0,0.7,0.1,0.8,0.3c0,0,0,0,0,0.1v2.3c3-0.4,5.3,1,6.4,3.9c0,0,0,0,0,0.1
		s0,0.1-0.1,0.1l0,0h-0.1c-1.2-1.8-3.9-3-7.2-3c-1.4,0-3,0.3-4.4,0.8c0.1,0,0.1,0,0.3,0c0.1,0,0.1,0,0.1,0.1l0,0
		c0.3,0,0.5,0.1,0.8,0.4c-1.2,0.9-3.3,0.9-3.8,2.5l0,0c0,0.1,0,0.1-0.1,0.1c-0.1,0-0.3-0.1-0.3-0.3c0-0.4,0.5-1.2,1.2-1.7
		c0.1-0.1,0.4-0.4,0.8-0.7c-1,0.5-2,1.3-2.5,2.2c-0.8,1.4-0.5,3.1,0.7,4.8c0-1.6,0.3-2.7,0.9-3.5c0.8-0.8,1.8-1,3.4-0.9
		c0,0,0.1,0,0.1,0.1c0.5,1.3,1.3,2.2,2,3.3v0.1c0.9-0.1,1.8-0.5,2.9-0.9c1.4-0.5,2.9-1.2,4.3-1.2c1.2,0,2.2,0.4,3.1,1.3v0.1
		c0,0,0,0.1-0.1,0.1c-0.5,0.3-1,0.5-1.4,0.8c-1.2,0.7-2.3,1.3-3.8,1.3c-0.5,0-0.9-0.1-1.4-0.3c0.3,1.4-0.5,2.7-1.2,3.9
		c-0.8,1.3-1.4,2.5-1,3.9c1-2.2,3-3.5,5.6-3.5c0.8,0,1.6,0.1,2.3,0.3c0.1-0.5,0-0.7-0.3-0.9c-0.1-0.3-0.4-0.5-0.3-1c0,0,0,0,0-0.1
		c1.4-1.3,4.7-3,7.4-3c2,0,3.1,0.9,3.8,2.6c0.1,0,0.4,0.1,0.5,0.1c0.5,0,0.9-0.3,1.3-0.5c0.3-0.1,0.5-0.4,0.9-0.4
		c0.3,0,0.4,0.1,0.7,0.3l0,0c0.4,1.4-0.1,2-0.7,2.3c-0.1,0.1-0.4,0.3-0.5,0.5h0.1c1.4,0,1.8-0.9,2.2-2c0.3-0.7,0.7-1.3,1.2-1.7
		c-2.7-0.7-4.7-2.1-6.9-3.8v-0.1c0,0,0-0.1,0.1-0.1c1.4-0.5,4.2-1.4,6.1-1.4c0.5,0,0.9,0,1.2,0.1c0,0,0.1,0,0.1,0.1v0.1
		c-0.3,0.3-0.5,0.5-0.8,0.8c-0.5,0.5-1,1-1.6,1.6c2.6-0.3,4.6-1.3,6.4-2.3c0.5-0.3,1.2-0.7,1.7-0.9h0.1v0.1c0,0.4-0.3,0.9-0.7,1.4
		c-0.5,0.8-0.8,1.4-0.4,1.8c0.4-0.3,0.8-0.5,1-0.8c0.9-0.7,1.8-1.3,3.1-1.7h0.1c0.1,0.4,0.3,0.8,0.4,1.2c0.1,0.8,0.4,1.6,1.2,1.7
		c0.5-2.9,1.6-5.5,3.4-8.3c0,0,0.1-0.1,0.1,0c0,0,0.1,0,0.1,0.1c0.1,0.3,0,0.8,0,1.2c0,0.5-0.1,1,0,1.2l0.1,0.1c1-1.4,1.8-3.1,2.5-5
		c0,0,0-0.1,0.1-0.1l0,0c0,0,0.1,0,0.1,0.1c0.8,3.5-0.9,6.1-2.3,8.7c-1.7,2.7-3.4,5.5-2.3,9.4c0.4-0.9,1.2-1.3,1.8-1.7
		c0.5-0.3,1-0.5,1.4-0.9l0,0l0,0h0.1v0.1l-0.7,0.8c-1.3,1.6-2.7,3-3.9,4.7h-0.1c0,0-0.1,0-0.1-0.1c-0.4-2.5,0.1-5.1,0.5-7
		c0.1-0.8,0.3-1.4,0.3-2c-4,4.8-7.2,15.5-5.5,24c0.9,4.4,3,7.8,6,9.5c-4.2-6-4.8-18,0.4-22.9c0,0,0,0,0.1,0l0,0l0.1,0.1
		c-0.1,4.2,0.9,8.2,2,12.1c1.8,6.6,3.4,13-1.6,18.4c5.7-3.9,8.1-10,7.4-18.6c-0.1-0.3-0.4-0.5-0.7-0.9c-1-1.4-2.5-3.4-2-4.7
		c0,0,0-0.1,0.1-0.1c0,0,0.1,0,0.1,0.1l0.1,0.4c0.9,2.1,1.8,4,3.8,5c0.3-5.7,0.7-11.6,1.3-18c0-0.1,0-0.1,0.1-0.1c0,0,0.1,0,0.1,0.1
		c0.3,4.4-0.1,8.2-0.4,12c-0.1,2.2-0.4,4.6-0.4,7c0,0,0,0.1-0.1,0.1c-0.3,0.1-0.4,0.3-0.4,0.5c-0.1,0.3-0.3,0.4-0.7,0.1
		c1,3.5,3.6,7.3,6,8.6c-4.3-5.3-1.7-14.5,0.3-21.2c0.4-1.2,0.7-2.3,0.9-3.4l0.1-0.1l0.1,0.1c0,0.9-0.1,2-0.1,2.9
		c-0.5,11.2-1.2,24,8.1,26.4c-5.5-5.7-4.2-16-2.7-23.5c-0.7-1.2-1.8-2.3-2.9-3.5c-1.2-1.2-2.3-2.2-2.6-3.3v-0.1h0.1
		c2.2,1.6,4.2,3.1,5.7,5.2c0.1-1.2-0.3-2.5-0.5-3.6c-0.3-1-0.5-2-0.3-2.5c0,0,0-0.1,0.1-0.1c0,0,0.1,0,0.1,0.1
		c1.4,2.9,1.4,7,1.4,11.5c0,7.3,0,14.7,6.4,15.9c-3-2.2-2.7-6.3-2.5-10.6c0.3-3.1,0.5-6.4-0.5-9.1v-0.1h0.1c1.8,0.5,2.6,2.1,3.3,3.6
		c0.4,0.7,0.8,1.4,1.2,2.1c0-3.3-0.9-6.1-3-9c-1.2-1.4-2.5-2.9-3.6-4.2c-0.3-0.3-0.5-0.5-0.8-0.8c-3.8-3.9-6.8-7.7-4.7-14.9
		c0,0,0-0.1,0.1-0.1l0,0c0,0,0.1,0,0.1,0.1c0.1,0.5,0,1.2,0,1.8c-0.1,0.9-0.1,2,0.3,2.3c0.3-0.3,0.5-0.7,0.7-1
		c0.1-0.4,0.3-0.7,0.5-0.9c0-0.1,0.1-0.1,0.3-0.3c0.3-0.1,0.5-0.3,0.8-0.3l0,0c0,0,0.1,0,0.1,0.1c0.1,0.5,0.1,0.9,0.4,1.4
		c0.1,0.5,0.4,0.9,0.7,1.3c0.5,1,1.2,2.2,1,3.9c0.8-0.1,0.9-0.8,1.2-1.4v-0.1c0.1-0.5,0.3-1,0.8-1.3h0.1c1.3,0.8,2.6,1.7,4,2.5
		c-0.1-0.4-0.3-0.7-0.4-0.9c-0.4-0.5-0.7-1.2-0.4-2.3c0,0,0-0.1,0.1-0.1h0.1c2,1.6,4.4,2.7,7.4,3.4c0-0.5-0.5-0.9-1-1.3
		c-0.5-0.3-0.9-0.7-0.9-0.9c0-0.3,0.1-0.4,0.3-0.7h0.1c0.7,0.4,1.4,0.5,2.2,0.7c1.3,0.3,2.7,0.4,3.3,1.6v0.1
		c-0.8,0.5-1.8,0.9-2.7,1.3c-1.4,0.7-2.9,1.3-3.8,2.2c0.7,0.1,0.9,0.8,1.2,1.4c0.4,0.8,0.7,1.6,1.4,1.6c0.3,0,0.4,0,0.7-0.1
		c-1.2-0.1-1.3-1.4-1.3-2.2v-0.1c0.3-0.3,0.7-0.4,1-0.4c0.4,0,0.8,0.3,1.2,0.4c0.4,0.3,0.8,0.4,1.2,0.4c0.7-1.8,2.2-2.9,4.3-2.9
		c2.2,0,4.7,1.2,6,2.7c0.7,0.8,0.9,1.7,0.9,2.6c0.8-0.4,1.6-0.5,2.2-0.5c2.5,0,4.3,2,5.9,3.8c-0.3-1.4-0.9-2.6-1.4-3.8
		c-0.8-1.4-1.4-2.6-1-4.2c-0.4,0-0.8,0-1,0c-2.5,0-4.4-0.8-5.6-2.2c0,0,0,0,0-0.1s0,0,0-0.1c0.9-0.8,1.8-1,2.9-1
		c1,0,2.1,0.4,3.1,0.9c1.3,0.5,2.6,1,4.2,1l0,0c0.3-0.4,0.5-0.8,0.8-1.3c0.5-1,1.2-2.1,2.6-2.1c2.1,0.3,2.5,2.1,2.9,3.9
		c0,0.3,0.1,0.4,0.1,0.7c0.9-1.4,1.2-3.1,0.5-4.8v0.1c-0.1,0.1-0.3,0.1-0.4,0.1c-0.4,0-0.7-0.4-1-0.8c-0.5-0.5-1.2-1.2-2.1-1.2
		c-0.3,0-0.4,0-0.7,0.1h-0.1v-0.1c0.3-0.7,0.7-0.9,1.2-0.9c1.3,0,2.9,2.1,3.1,2.5c0-0.1-0.1-0.1-0.1-0.3c-0.9-1.8-2.6-2.9-4.6-2.9
		c-0.7,0.5-0.7,1.6-0.7,2.5c0,0.4,0,0.7-0.1,0.9l-0.1,0.1c0,0-0.1,0-0.1-0.1c0-0.3-0.1-0.4-0.4-0.5c-0.3-0.1-0.7-0.4-0.5-1.2
		c-0.1-0.9,0.4-1.2,0.9-1.4c0.4-0.1,0.7-0.3,0.8-0.7c-0.5,0-0.9,0-1.4,0c-3,0-5.1,0.9-7.2,1.8c-0.4,0.1-0.7,0.3-1,0.4h-0.1v-0.1
		c0.8-1.7,1.6-2.9,3.6-2.9c0.5,0,1.2,0.1,1.8,0.3c0-0.3,0-0.5,0-0.8c0-1-0.1-2.1,0.9-2.2c0.1,0,0.3,0,0.4,0c0.9,0,1.3,0.4,1.8,0.8
		c0.1,0.1,0.3,0.1,0.4,0.3c-1.2-1.7-2.3-2.5-3.5-2.5c-2.1,0-4.2,2.5-6.1,5c-1.8,2.2-3.4,4.3-5.2,4.7c-0.4,0.1-0.8,0.1-1.2,0.1
		c-2.9,0-6.4-1.8-6.9-3.6v-0.1c0,0,0,0,0.1,0c0.5,0,1.2,0,1.8,0c0.7,0,1.6,0,2.3,0c2.1,0,5-0.1,6.1-1.4c-0.9,0.1-2,0.3-3,0.3
		c-2.9,0-5.5-0.8-7-2.1c0,0,0,0,0-0.1c0-0.1,0-0.3,0.1-0.4c0.1-0.1,0.4-0.1,0.7-0.1h0.1c0.1,0,0.4,0,0.5-0.1c0,0,0.1-0.1,0-0.5
		c-0.1,0-0.1,0-0.3,0c-0.1,0-0.1,0-0.3,0l0,0c-0.7-0.1-1.3-0.1-1.8-0.3c-1.6-0.4-2.9-0.9-4-1.7v-0.1c0,0,0-0.1,0.1-0.1
		c0.4-0.1,0.9-0.3,1.3-0.4h0.1c0.8-0.1,1.4-0.3,1.8-0.7c-0.1,0-0.3,0-0.4,0h-0.3c-3.3-0.5-6.9-2.2-7.3-4.2v-0.1h0.1
		c2.6,1.6,6.6,2,9.9,2.1c1.6,0.1,3.1,0.1,4.7,0.1c0.7,0,1.3,0,2,0c3.8,0.1,7.8,0.4,10.3,1.6c-3.1-3-8.2-3.8-13-4.4
		c-4.2-0.7-8.1-1.2-10.9-3c0,0-0.1-0.1,0-0.1l0.1-0.1c0.4,0,0.9,0.1,1.3,0.1c2.9,0.4,6.5,0.8,9.1,0.8c0.4,0,0.7,0,0.9,0
		c-3-1.4-6-2.9-8.5-5v-0.1l0.1-0.1l0,0c2.9,0.1,5.5,0.7,7.7,1.3c0.1,0,0.3,0.1,0.4,0.1c0.1,0,0.1,0,0.3,0.1c2,0.7,3.6,1.6,5.1,2.6
		c0-0.8-0.3-1.6-0.7-2.2c-0.4-0.5-0.9-1-1.4-1.6c-0.5-0.5-1.2-1-1.6-1.8c-0.5,0.3-1.3,0.4-2.1,0.4c-1.6,0.1-3.4-0.1-4.7-0.3
		c-0.4,0-0.8-0.1-1-0.1c0.1,0.1,0.3,0.3,0.3,0.4c0,0.1,0,0.3-0.4,0.4h-0.1c-0.1-0.1-0.5-0.3-0.8-0.4c-0.9-0.4-1.8-0.9-2-1.4
		c0-0.1,0-0.4,0.3-0.5h0.1c1.6,0.4,3.1,0.7,4.6,0.7c0.8,0,1.6-0.1,2.2-0.3c0.8-0.1,1.6-0.4,2.1-0.7c-1.4-0.7-2.9-1.3-3.3-3v-0.1
		c0,0,0,0,0.1,0l0,0c0.4,0,0.5-0.1,0.5-0.1c0-0.1,0-0.3-0.3-0.4l0,0v-0.1c0,0,0.1-0.1,0.1,0l0,0l0,0c0.8,0.3,1.6,0.4,2.5,0.4
		c1.7,0,3.3-0.5,4-1.4c-3.9-0.3-5.3-2.3-5.3-4v-0.1v-0.1v-0.1c0.1-0.1,0.4-0.3,0.8-0.4c0.8-0.3,1.7-0.4,2.6-0.5
		c1.7-0.3,3.5-0.5,3.4-1.4c-0.3-0.3-0.8-0.5-1.4-0.8c-0.3-0.1-0.4-0.1-0.7-0.3c-1.7-0.7-3.8-1.3-4.3-2.9v-0.1h0.1
		c2.1,0.1,3.9-0.1,5.5-0.8s2.6-1.8,3.5-3.3l0.1-0.1l0.1-0.1c-0.3,0-0.7-0.1-0.9-0.1c-0.8,0-1.4,0.1-2.1,0.3c-0.5,0.1-1,0.3-1.6,0.3
		h-0.4c-0.5,0-0.9-0.1-1.2-0.4c0,0-0.1-0.1,0-0.1c1.2-1.7,3-2.9,4.8-3.9s3.6-2.2,4.8-3.9c-0.8,0.1-1.6,0.4-2.3,0.8
		c-0.8,0.4-1.6,0.7-2.2,0.7c-0.3,0-0.5,0-0.8-0.1c0,0,0,0,0-0.1V456c0.4-0.3,0.8-0.4,1.3-0.7c1.6-0.8,3.6-1.7,3.4-2.9
		c-0.7,0.4-1.6,0.7-2.5,0.7s-1.7-0.3-2.2-0.8v-0.1c0,0,0-0.1,0.1-0.1c0.4,0,0.8,0,1.2,0c1.8,0,3.1-0.5,4.6-1
		c0.8-0.3,1.4-0.5,2.3-0.8h0.1v0.1c-0.1,0.5-0.5,0.8-0.9,1.2c-0.3,0.3-0.7,0.5-0.8,0.9l0,0c0.4,0,0.8-0.3,1.2-0.4
		c0.4-0.1,0.7-0.3,0.9-0.3c0.1,0,0.4,0,0.4,0.4l0,0c0,0.4-0.3,0.7-0.5,0.8c-0.3,0.1-0.5,0.3-0.4,0.8c0.1,0,0.3,0.1,0.4,0.1
		c0.4,0,0.7-0.1,1-0.3c0.3-0.1,0.5-0.3,0.8-0.3c0.3,0,0.5,0.1,0.7,0.5v0.1c0,0,0,0-0.1,0.1c-0.5,0.1-1,0.3-1.6,0.4
		c-1.2,0.3-2.3,0.7-3,1.4c0.3,0,0.4-0.1,0.5-0.1s0.3-0.1,0.3-0.1c0.3,0,0.3,0.3,0.4,0.4c0,0,0,0.1-0.1,0.1c-0.3,0.1-0.8,0.3-1.2,0.5
		c-1.7,0.7-3.9,1.6-4,2.5c0,0.1,0,0.4,0.3,0.5c0,0,0,0,0,0.1s0,0.1-0.1,0.1l0,0l0,0c-1.4-0.7-2.9,0.1-4.3,2.2
		c0.8-0.3,1.7-0.4,2.6-0.5c1.2-0.1,2.3-0.4,3.4-0.7h0.1c0,0,0,0,0,0.1c0,0.4-0.1,0.8-0.3,0.9c-0.1,0.1-0.3,0.4-0.3,0.7
		c1,0,2.2-0.4,3.3-0.8c1.2-0.4,2.2-0.7,3.1-0.7c0.4,0,0.8,0,1,0.1l0.1,0.1c0,0,0,0.1-0.1,0.1c-1,0.1-1.8,0.5-2.7,0.8
		c-1.3,0.5-2.7,0.9-4.6,0.9c-0.4,0-0.8,0-1,0l0,0c-0.7,1.3-1.6,2.3-3.3,3.4c-0.7,0.4-1.4,0.8-2.1,1.2c-0.5,0.3-1,0.5-1.6,0.8
		c0.9,0.3,2.2,0.4,3.6,0.5c1.3,0.1,2.9,0.1,4.6,0.1c4.4,0,9.3-0.4,13.3-1.2c2.5-0.4,4.6-1,6.1-1.6c-1.7-0.1-3.4-0.3-5.1-0.5h-0.8
		c-4.2-0.4-8.5-0.7-12.2-1.6l-0.1-0.1c0,0,0-0.1,0.1-0.1c2.6-0.4,4.7-0.8,6.5-1.3c5.5-1.4,9-3.4,10.9-6.4c-4,1-9,2.2-13.7,2.2
		c-1,0-2.1-0.1-3-0.3c0,0-0.1,0-0.1-0.1c0,0,0-0.1,0.1-0.1c0.8-0.1,1.7-0.4,2.5-0.5c7-1.4,14.3-2.9,17.6-8.1c-1.6,0.1-3,0.5-4.6,0.9
		c-2,0.5-3.9,1-5.7,1c-0.8,0-1.4-0.1-2.2-0.3c0,0-0.1,0-0.1-0.1c0,0,0-0.1,0.1-0.1c7.2-1.6,15.1-4.2,19-10.4c-1.4,0.8-4,1.4-6.6,2
		c-3.1,0.7-6.4,1.4-7.2,2.5c0.3,0,1,0.1,1.2,0.4c0,0.1,0,0.1,0,0.3c0,0,0,0-0.1,0c-1.6,0.1-3,0.7-4.6,1.2c-1.8,0.5-3.5,1.2-5.2,1.2
		c-0.4,0-0.9,0-1.2-0.1c0,0-0.1,0-0.1-0.1c0,0,0-0.1,0.1-0.1c13.4-4.4,24.9-8.9,31.4-18.6c-7.3,3.8-18,8.7-27.5,11.2
		c0,0-0.1,0-0.1-0.1v-0.1c1.3-0.7,2.6-1.3,4-2.1c6.6-3.3,14.1-7,16.9-12.8c-2.7,1.3-5.2,3.3-7.9,5.3c-0.9,0.7-1.8,1.4-2.7,2.1
		c-3,2.2-7,5.2-11.2,5.2c-0.4,0-0.8,0-1.2-0.1c0,0-0.1,0-0.1-0.1c0,0,0-0.1,0.1-0.1c14.2-6.5,26.4-13,31.7-26.6v-0.1
		c-2.2,1.8-4.3,3.9-6.4,5.7C550.7,418.6,546.3,422.8,540.7,425.5z M472.5,424.2c-0.3,0.3-0.4,0.4-0.7,0.4l0,0
		c-0.4,0-0.8-0.3-1.2-0.5c-0.5-0.3-1-0.7-1.6-0.7c-0.1,0-0.3,0-0.4,0h-0.1v-0.1c0.3-0.3,0.7-0.5,1-0.5c0.9,0,2,0.7,2.6,1.2
		c0.1,0.1,0.1,0.1,0.3,0.1C472.5,424,472.6,424.1,472.5,424.2C472.6,424.1,472.6,424.1,472.5,424.2z M416.7,425.9
		C416.7,425.9,416.6,425.9,416.7,425.9c-0.1,0-0.1,0-0.1,0s-0.1-0.1-0.4-0.3c-1.2-0.8-4.8-2.9-5.2-5.3v-0.1h0.1
		c2,1.7,3.9,3.5,5.5,5.5C416.7,425.8,416.7,425.8,416.7,425.9z M443.8,442c-0.5,0.5-1.3,0.8-2.2,0.8c-1.4,0-3.1-0.7-4.6-1.2
		c-0.7-0.3-1.3-0.5-2-0.7c0.8,1.2,2,1.8,3.3,2.5c0.5,0.3,1.2,0.7,1.7,1l0,0c0.1,0.1,0.3,0.3,0.1,0.4c0,0-0.1,0.1-0.3,0.1
		c-0.3,0-0.9-0.3-1.8-0.7c-0.4-0.1-0.7-0.3-0.9-0.4c0.8,1.7,2.3,2.7,3.9,3.6c0.8,0.5,1.6,0.9,2.2,1.6c0,0,0.1,0,0.1,0.1
		c0,0.1,0,0.1-0.1,0.1l0,0l0,0c-1.3,0-2.7-0.9-4.4-2c-1-0.7-2.2-1.4-3.3-1.8l-0.1-0.1c0-0.4,0.4-0.4,0.7-0.5c-1.8-1.2-4-2.1-6.1-3
		c-2-0.8-4-1.7-5.9-2.7v-0.1c0,0,0-0.1,0.1-0.1c0.1,0,0.1,0,0.3,0c1,0,3.3,1,5.5,2c1.3,0.5,2.5,1,3.4,1.4c0-0.8-1.4-2.9-2.5-3.5
		c0,0-0.1-0.1,0-0.1c0,0,0-0.1,0.1-0.1c1.7,0,3.4,0.7,5.1,1.6c2,0.9,4,2,6.6,2c0.3,0,0.7,0,0.9,0c0,0,0.1,0,0.1,0.1
		C443.8,441.8,443.8,442,443.8,442z M444,439L444,439c0-0.1,0-0.1,0-0.1c0.4-0.3,0.9-0.4,1.4-0.4c0.7,0,1.4,0.3,2.2,0.4
		c0.8,0.3,1.7,0.5,2.6,0.5c0.4,0,0.7,0,1-0.1h0.1v0.1c-0.4,0.5-0.9,0.9-1.7,0.9c-0.7,0-1.4-0.3-2.1-0.4c-0.4-0.1-0.9-0.3-1.3-0.4
		c0.1,1.3,3,3.1,5,3.9l0.1,0.1c0,0,0,0.1-0.1,0.1c-0.1,0-0.3,0-0.4,0C448,443.8,444.9,440.1,444,439z M452.6,458.1
		c-0.1,0-0.4,0.1-0.5,0.1c-1.4,0-3-1.7-4.2-3c-0.3-0.4-0.7-0.7-0.9-0.9c0,0,0,0,0-0.1c0-0.9,0.8-1,1.6-1c0.1,0,0.4,0,0.7,0
		s0.4,0,0.7,0c-0.7-0.8-1.4-1.3-2.1-2c-0.5-0.4-1-0.8-1.6-1.3v-0.1c0.4-0.5,1-0.5,1.7-0.5c0.4,0,0.8,0,1.2,0c0.4,0,0.8,0,1.2,0
		c0.3,0,0.5,0,0.7,0h0.1v0.1c-0.4,0.8-1.4,0.9-2.3,0.9c-0.1,0-0.4,0-0.5,0c0.3,0.7,0.9,1,1.6,1.4c0.8,0.4,1.6,0.9,1.8,1.8v0.1
		c0,0,0,0-0.1,0c-0.9,0.1-1.6,0.4-2.2,0.7h-0.1c1,1.3,2.1,2.6,3.6,3.3C452.7,457.9,452.7,457.9,452.6,458.1
		C452.7,458,452.7,458.1,452.6,458.1z M452.6,448.7c-0.3,0.1-0.5,0.1-0.8,0.1c-1.8,0-4.2-1.8-5.3-3.1v-0.1c0.4-0.4,1-0.5,2.1-0.5
		c0.5,0,1,0,1.4,0c0.5,0,1,0,1.4,0c0.4,0,0.7,0,0.9,0h0.1v0.1c-0.1,0.7-0.8,1-2,1l0,0c-0.8,0-1.7-0.1-2.2-0.4c0,0.1,0,0.3,0.1,0.3
		c0.5,0.9,2.7,2,4,2.3C452.7,448.6,452.7,448.6,452.6,448.7C452.7,448.7,452.7,448.7,452.6,448.7z M455.2,445
		c-0.1,0.1-0.4,0.1-0.7,0.1c-1.2,0-3.1-1.4-3.4-2.7v-0.1c0,0,0,0,0.1,0c0.3,0,0.5,0,0.8,0c0.8,0,1.6,0.1,2.2,0.4
		c0.1,0,0.3,0.1,0.5,0.1c0,0,0,0,0.1,0s0,0,0,0.1c-0.1,0.4-0.3,0.7-0.7,0.7c-0.3,0-0.5-0.1-0.8-0.3s-0.5-0.3-0.7-0.3
		c0.4,0.5,0.8,0.8,1.4,1.2c0.4,0.3,0.8,0.5,1,0.8C455.2,444.8,455.3,444.8,455.2,445L455.2,445z M428.3,506.7
		C428.2,506.7,428.2,506.7,428.3,506.7c-0.1-0.1-0.1-0.1-0.1-0.1h-0.1c0.4-0.4,0.7-1.7,0.1-2.3c-0.1-0.1-0.3-0.1-0.4-0.3
		c-0.1,0-0.1,0-0.3,0c0.1-0.3,0.3-0.3,0.4-0.4l0,0c0-0.1,0-0.1,0.1-0.1c0.3,0,0.7,0.3,0.9,0.7s0.4,0.9,0.4,1.3
		C429.5,506.3,429,506.7,428.3,506.7z M444.1,508.1c-0.1,0.3-1.3,0.3-1.3,0.3c-0.5,0-2-0.1-2.6-0.8c-0.3-0.1-0.4-0.3-0.4-0.4
		c0-0.1,0.3-0.1,0.4-0.1c0.4,0,1,0.1,1.4,0.5c0,0.1,0.1,0.1,0.1,0.3c0.3,0,0.7,0,0.8,0C444,507.9,444.1,508,444.1,508.1
		C444.1,508,444.1,508,444.1,508.1z M459.3,503.2c-0.5,1.3-1,2.6-2.1,3.5c0,0,0,0-0.1,0c0,0,0,0-0.1,0c-0.4-0.4,0-0.9,0.4-1.6
		c0.4-0.5,0.9-1.2,0.8-2c0,0-0.1,0-0.3,0c-0.7,0-1.8,0.1-2.9,0.3c-0.8,0.1-1.4,0.1-1.7,0.1c0,0-0.3,0-0.3-0.1c0-0.1,0-0.1,1.3-0.5
		c0.9-0.3,1.6-0.7,2.3-1c0.9-0.5,1.8-1,3.3-1.2h0.1v0.1C460,501.8,459.6,502.5,459.3,503.2z M470.9,458.9l0.3-0.5
		c0.4-1.2,0.8-2.1,1.2-2.9l0.1-0.1c0.5,0.1,0.8,0.3,0.9,0.5c0.1,0.4-0.1,0.8-0.4,1.3c-0.3,0.4-0.4,0.7-0.5,1c0,0.3,0,0.4,0,0.7l0,0
		c0,0.3,0,0.3,0.1,0.3c0,0,0.1-0.1,0.3-0.1c0.3-0.1,0.5-0.4,0.8-0.4c0.1,0,0.4,0,0.5,0.1c0,0,0,0,0,0.1v0.1
		c-0.8,1.2-2.2,1.7-3.6,2.1l-0.3,0.1l0,0h-0.1v-0.1C470.4,460.2,470.7,459.5,470.9,458.9z M464.2,483.4
		C464,483.4,464,483.5,464.2,483.4L464.2,483.4c-0.1,0-0.1,0-0.3,0c-0.7-1,0.4-3.3,1-4.7c0.1-0.1,0.1-0.4,0.3-0.5c0,0,0,0,0.1-0.1
		h0.1c0.7,0.4,0.1,2-0.3,3c0,0.1-0.1,0.4-0.1,0.4c0,0.1,0.1,0.1,0.1,0.1c0.4,0,1.4-0.8,1.7-1c0,0,0,0,0.1,0l0,0h0.1
		c0.1,0.1,0.3,0.4,0.1,0.5c-0.1,0.5-0.8,0.8-1.6,1.2C465,482.7,464.3,483,464.2,483.4z M469.8,497.1c-0.4,0.1-0.7,0.1-0.5,0.5v0.1
		c0,0,0,0-0.1,0c-0.3,0-0.4,0-0.5-0.1c-0.3-0.3-0.1-0.7-0.1-1.2c0-0.3,0-0.5,0-0.7c-0.7,0.5-0.8,1.4-1,2.3c-0.1,0.7-0.4,1.4-0.8,2
		c0.7,0.1,1-0.1,1.3-0.4c0.4-0.3,0.8-0.5,1.4-0.5h0.1v0.1c-0.8,1.6-2.6,2.1-4.4,2.5l-0.4,0.1l0,0h-0.1v-0.1c0.1-0.5,0.4-1,0.5-1.6
		c0.9-2.3,1.7-4.8,3.8-6.1c0,0,0,0,0.1,0s0.3,0.1,0.4,0.3c0.1,0.3,0,0.7-0.1,1c-0.1,0.3-0.3,0.7-0.1,0.9c0.1,0.1,0.5,0.1,1,0h0.1
		c0,0,0,0,0,0.1C470.4,496.9,470,497.1,469.8,497.1z M470.9,486.4c-0.5,0.3-1,0.4-1.3,0.9c0,0,0,0-0.1,0l0,0c0,0-0.1,0-0.1-0.1
		c-0.8-2.1,0.5-5.7,2.2-6.9c0,0,0,0,0.1,0c0,0,0,0,0.1,0c0.5,0.9,0,1.7-0.7,2.5c-0.5,0.8-1,1.6-1,2.5c0.1,0,0.3,0,0.5,0
		c0.4,0,0.7-0.1,0.9-0.3s0.7-0.3,1-0.3h0.1v0.1C472.4,485.9,471.6,486.1,470.9,486.4z M475,470.1c-0.8,1.2-3.1,2.1-5,2.3l0,0h-0.1
		v-0.1c0.3-0.7,0.4-1.4,0.5-2.3c0.1-1,0.3-2.2,0.8-2.9h0.1c0.4,0.1,0.3,0.8,0.1,1.6c-0.1,0.7-0.3,1.6-0.1,2.2h0.1
		c1.3-0.4,2.7-0.9,3.5-2h0.1c0,0,0.1,0,0.1,0.1C475.2,469.3,475.1,469.7,475,470.1z M475,467.5c-0.3,0.1-0.7,0.4-0.8,0.7
		c0,0,0,0.1-0.1,0.1l0,0c-0.7-0.1-0.7-1-0.5-1.8c0-0.4,0.1-0.8,0-1.2c-0.8,0.1-1.3,0.5-2,0.8c-0.8,0.4-1.6,0.8-2.6,0.9h-0.1v-0.1
		c0.3-0.3,0.4-0.8,0.7-1.3v-0.1c0,0,0,0,0-0.1c0.1-0.4,0.3-0.8,0.4-1.2c0.3-0.8,0.5-1.6,0.9-2.2c0,0,0,0,0-0.1v-0.1
		c0,0,0.1-0.1,0.1,0c0.1,0,0.1,0.1,0.1,0.1l0,0c0.7,0.7,0.4,2.5,0,3.1c0.4,0,0.8-0.1,1-0.4h0.1c0.4-0.3,0.9-0.4,1.6-0.4h0.1
		c0,0,0,0,0,0.1l0,0c-0.1,0.8-0.1,1.8,0.3,2.1c0.3,0.3,0.7,0.1,1.3-0.3h0.1v0.1C475.9,467.1,475.4,467.4,475,467.5z M478.6,427.1
		L478.6,427.1c0-0.1,0-0.1,0.1-0.1s0.3-0.1,0.4-0.1c0.8,0,1.2,0.5,1.6,1c0.3,0.4,0.4,0.8,0.7,1.2c0.7,1.2,1.3,2.5,2.5,2.6
		c0.1,0,0.1-0.1,0.1-0.1s-0.1-0.1-0.3-0.1c-0.5-0.3-1.3-0.8-0.8-1.8c0,0,0.1-0.1,0.1,0c1.6,0.4,2.2,1.4,3,2.6
		c0.3,0.4,0.5,0.9,0.9,1.3v0.1c0,0,0,0.1-0.1,0.1l0,0C483.8,433.5,480.1,430.5,478.6,427.1z M482.3,436
		C482.3,436.1,482.3,436.1,482.3,436c-0.1,0.1-0.3,0.1-0.3,0.1c-1.6,0-2.2-3.1-2.6-5.6c-0.1-0.4-0.1-0.9-0.3-1.2v-0.1h0.1
		c0.9,0.8,1.3,2.2,1.6,3.5C481.2,433.9,481.5,435,482.3,436L482.3,436z M478.9,462.3L478.9,462.3
		C478.8,462.3,478.8,462.3,478.9,462.3c-0.1,0.1-0.1,0.1-0.3,0c-0.3-0.4-0.5-0.9-0.5-1.6c0-1.4,0.5-3.1,0.9-3.9v-0.1
		c0,0,0,0,0.1-0.1h0.1c0,0,0.1,0,0.1,0.1l0,0c0.4,0.3,0.3,0.9,0,1.6c-0.1,0.4-0.3,0.9-0.3,1.4c0,0.3,0,0.5,0.1,0.7l0,0
		c0,0.1,0.1,0.1,0.1,0.1c0.3,0,0.7-0.3,1-0.5l0.1-0.1c0.1-0.1,0.3-0.3,0.3-0.4c0,0,0-0.1,0.1-0.1h0.1c0.1,0.1,0.3,0.4,0.3,0.5
		c0,0,0,0,0,0.1c-0.1,0.4-0.5,0.7-1,0.9C479.5,461.5,479,461.8,478.9,462.3z M487,513.5C487,513.5,486.8,513.5,487,513.5
		c-1.7-0.3-2.7-1.2-3.8-2.1c-0.4-0.4-0.9-0.8-1.3-1.2c-0.3,2,0.3,2.9,0.9,4c0.3,0.5,0.5,1,0.8,1.6c0,0,0,0,0,0.1s0,0.1-0.1,0.1l0,0
		l0,0c-4.6-1.7-4-6.1-3.5-10.7c0.4-3.1,0.7-6.4-0.7-8.9v-0.1h0.1c2.9,1,2.2,4.7,1.4,8.2c-0.5,2.6-1,5.2-0.3,6.8c0.5-1,0.8-2.3,1-3.6
		c0-0.3,0.1-0.5,0.1-0.7c0,0,0-0.1,0.1-0.1h0.1c0.3,0.5,0.7,1,0.9,1.6c0.7,1.3,1.3,2.6,2.6,3.3c-0.1-0.4-0.4-0.9-0.5-1.4
		c-0.1-0.5-0.4-1.2-0.7-1.7l0,0c0-0.9-0.1-6.9,0.3-7.2h0.1c0.1,0,0.3,0,0.4,1.7v3C485.1,508.9,486.1,511.3,487,513.5
		C487,513.4,487,513.4,487,513.5z M521.9,514.4c0.3-0.7,1-1.2,2-1.2c0.3,0,0.4,0,0.7,0.1c0,0,0.1,0,0.1,0.1v0.1
		c-0.3,0.1-0.4,0.3-0.7,0.4c-0.7,0.4-1.3,0.8-1.4,1.7c0,0,0,0.1-0.1,0.1l0,0c0,0,0,0-0.1,0C521.9,515.3,521.8,514.8,521.9,514.4z
		 M499.1,501.6c0.8,0,1.7,0.5,2.6,1c0.5,0.4,1.2,0.7,1.7,0.9c0.4,0,0.7,0,0.9,0c0.5,0,1.3,0,1.3,0.4c0,0.4-0.8,0.4-1.3,0.4
		c-0.3,0-0.7,0-1,0c-0.7-0.1-1.2-0.3-1.7-0.4c-0.5-0.1-1-0.3-1.6-0.4c-0.1,0.9,0.7,2.1,1.2,2.7c0.3,0.4,0.4,0.5,0.3,0.7l-0.1,0.1
		c-0.1,0-0.3-0.1-1-0.7l0,0c-0.4-0.5-0.7-1.2-0.8-2c-0.3-0.9-0.7-1.8-1.3-2.3c0,0,0,0,0-0.1v-0.1
		C498.4,501.6,498.8,501.6,499.1,501.6z M498.7,496.3C498.8,496.3,498.8,496.4,498.7,496.3c0.1,0.1,0.1,0.1,0,0.3
		c-0.1,0.1-0.3,0.3-0.5,0.3c-0.4,0-1-0.4-1.7-0.8c-0.5-0.3-1-0.7-1.4-0.7c0,0-0.1,0-0.1-0.1v-0.1c0.1-0.3,0.4-0.4,0.7-0.4
		c0.5,0,1.3,0.5,1.8,0.9C498.2,496,498.4,496.3,498.7,496.3z M503,450c-0.5,0.7-1.4,1.2-2.6,1.3l0,0h-0.1v-0.1
		c0.4-0.8,1.3-1.6,2-1.6c0.3,0,0.5,0.1,0.8,0.3C503,449.9,503,449.9,503,450z M506.9,445.3h-0.1l0,0c0,0,0,0-0.1,0v-0.1
		c0.1-1,0.9-1.3,1.7-1.7c0.3-0.1,0.7-0.3,0.9-0.4c0-0.3-0.1-0.3-0.3-0.3c-0.1,0-0.4,0.1-0.7,0.3c-0.3,0.1-0.5,0.3-0.8,0.3
		c-0.1,0-0.3,0-0.4-0.1c-0.1-0.1-0.1-0.4-0.1-0.9c0,0,0-0.1,0.1-0.1h3.4h0.1v0.1C510.2,444.2,508.6,444.7,506.9,445.3z M510.8,446.3
		c-0.4,0-0.8,0-1.2,0h-0.1c0,0,0,0,0-0.1c0.1-0.9,1.2-1,1.8-1c0.5,0,1,0,1.4,0.1c0.5,0,1,0.1,1.4,0.1c0.4,0,0.7,0,0.8-0.1h0.1v0.1
		c-0.7,2-2.6,2.7-4.4,3.4c-0.4,0.1-0.8,0.3-1,0.4l0,0l0,0c0,0,0,0,0-0.1c-0.1-0.5,0.7-0.9,1.7-1.4c0.9-0.5,2.1-1,2.5-1.7
		C512.9,446.1,512,446.3,510.8,446.3z M515.8,449.5c-1,1.3-2.1,2.6-3.6,3.4c0.3,0.3,0.9,0.3,1.4,0.4c0.5,0,1,0.1,1.4,0.4
		c0,0,0.1,0.1,0,0.1c-1.2,2.1-3,3.8-5.6,4.7l0,0h-0.1v-0.1c1.4-1.3,2.6-2.3,3.8-3.4c-0.1-0.7-0.9-0.8-1.6-0.9
		c-0.3,0-0.5-0.1-0.8-0.3l-0.1-0.1c0.3-1,1.2-1.4,2-2c0.5-0.3,1-0.5,1.4-1c-0.3-0.3-0.9-0.4-1.4-0.4s-1-0.1-1.4-0.4c0,0,0,0,0-0.1
		v-0.1c0.4-0.5,1-0.5,1.7-0.5c0.4,0,0.8,0,1.2,0s0.8,0,1.2,0c0.3,0,0.5,0,0.7,0h0.1C515.8,449.5,515.8,449.5,515.8,449.5z
		 M512.1,443.5c-0.4,0.1-0.8,0.4-1.2,0.5l0,0h-0.1v-0.1c0.5-1,3.8-3.3,5.3-4.2c-0.3-0.1-0.5-0.3-0.8-0.3c-0.5,0-1,0.1-1.7,0.4
		c-0.7,0.3-1.3,0.4-1.8,0.4s-1-0.1-1.4-0.4v-0.1c0,0,0-0.1,0.1-0.1c2.2-0.7,4.6-1,7.2-1.3h0.1v0.1
		C516.8,441.2,514.5,442.3,512.1,443.5z M530.7,437.9h0.1v0.1c-1,1.3-2,2.7-2.7,3.9c1.7-0.5,3.1-1.2,4.7-1.8c2-0.9,4-1.7,6.4-2.3
		c0,0,0.1,0,0.1,0.1v0.1c-2.2,1.3-9.4,4.6-13.8,6.3c0.1,0.3,0.1,0.5,0.1,0.8c-0.3,0.9-1.7,1.6-3.3,2.3c-1.3,0.7-2.7,1.3-3.3,2
		c0,0,0,0-0.1,0l0,0l-0.1-0.1c0.1-1,1.4-1.8,2.7-2.6c1.3-0.8,2.6-1.7,3.3-2.9c0,0,0-0.1-0.1-0.1c-0.5,0-1.6,0.7-2.1,0.9h-0.1h-0.1
		c0,0,0,0-0.1-0.1c-0.1-0.9,1-1.6,2.3-2.2c0.9-0.5,1.8-0.9,2.2-1.6c-0.1,0-0.1,0-0.3,0c-0.8,0-1.7,0.4-2.7,0.8
		c-1.2,0.4-2.6,0.9-3.9,0.9c-0.7,0-1.3-0.1-1.8-0.4l-0.1-0.1c0,0,0-0.1,0.1-0.1c3.3-0.5,6-1.6,8.7-2.7
		C528.1,439,529.4,438.4,530.7,437.9z M536.9,423.3L536.9,423.3C536.7,423.5,536.7,423.5,536.9,423.3c-0.1,0-0.1,0-0.3,0
		c-0.1-0.1-0.3-0.4-0.1-0.5c0.1-0.4,0.7-0.8,1.2-1.2c0.7-0.4,1.3-0.8,1.4-1.4c0,0,0-0.1,0.1-0.1h0.1c0.3,0.4,0.4,0.7,0.4,0.9
		c-0.1,0.5-0.9,0.9-1.6,1.3C537.7,422.7,537,422.9,536.9,423.3z M441.4,498.6c2.5,0,5.3-1,7.4-2.6c0.5-0.4,1-0.8,1.3-1.2
		c-0.3,0-0.7,0-0.9,0c-1.6,0-3.1,0.4-4.6,0.7c-0.3,0-0.5,0.1-0.8,0.1c-1.7,0.4-3.1,0.8-4.7,0.8c-0.9,0-1.6-0.1-2.3-0.4
		c-0.4-0.1-0.8-0.4-1.2-0.5c0.1,0.3,0.3,0.4,0.4,0.7C437.6,498.2,439.8,498.6,441.4,498.6z M521.9,472.6c0.4,0,0.8-0.1,1.2-0.1
		c0.1,0,0.3,0,0.4,0c0.9-0.1,1.8-0.1,2.9-0.1c1.7,0,3.5,0.1,5.2,0.3c1.7,0.1,3.4,0.3,5.1,0.3c2.1,0,3.8-0.1,5.5-0.5
		c-1.3-1.3-3.4-2.5-6-3.4c-2.7-0.9-5.9-1.6-8.5-1.6c-2.6,0-5,0.5-6.6,1.4c0.3,0,0.4,0,0.7,0c0.3,0,0.5,0,0.8,0c1,0,2.1,0.1,2.5,0.9
		v0.1c0,0,0,0-0.1,0c-0.5,0-1.2,0-1.7,0c-0.9,0-1.8,0.1-2.6,0.1c-2.7,0.3-4.2,0.9-4.3,1.7c0,0.1,0,0.3,0.1,0.5v0.1c0,0,0,0-0.1,0.1
		c-0.3,0-0.5,0-0.8,0.1c-0.3,0-0.7,0-0.9,0.1h-0.1h-0.1c-0.4,0.1-0.8,0.1-1,0.3c-0.4,0.1-0.5,0.4-0.8,0.7c0.5,0.7,1.7,0.9,2.7,1
		c0.7,0.1,1.4,0.3,2,0.5c0.3,0.1,0.5,0.3,0.7,0.4v0.1c-0.7,1.4-2.2,1.8-3.8,2.3c-0.9,0.3-1.8,0.5-2.5,1c0.7,0.8,1.8,1,3,1.3
		c0.7,0.1,1.4,0.4,2,0.7c0,0,0,0,0.1,0.1v0.1c-0.3,0.3-0.7,0.4-1,0.5c-0.5,0.1-1,0.3-1,0.9c0.1,0,0.4,0,0.5,0c1.3,0,2.5,0.3,3.6,0.9
		c1,0.5,1.8,1,2.7,1.6c1.3,0.9,2.5,1.7,3.8,1.8c-0.3-1.8-1.7-3.1-3-4.3c-1-0.9-2-1.8-2.1-2.7v-0.1c0,0,0,0,0.1,0c0.3,0,0.4,0,0.7,0
		c1.8,0,3.4,0.5,4.8,1c0.4,0.1,0.7,0.3,1,0.4c0.8,0.3,1.7,0.5,2.6,0.5c0.3,0,0.5,0,0.7,0c-1.2-1.2-2.9-2-4.4-2.7
		c-1.2-0.5-2.3-1-3.4-1.8v-0.1c0,0,0-0.1,0.1-0.1c0.8,0,1.4,0,2.2,0c0.5,0,0.9,0,1.4,0c0.8,0,1.4,0,2.2,0.1c3.4,0.3,6.6,0.9,10,2
		c-2.6-4.6-9.4-5.3-15.9-6H522C521.9,472.8,521.9,472.8,521.9,472.6C521.9,472.7,521.9,472.7,521.9,472.6z"/>
	<path id="Grey" fill="#565759" d="M681.2,375.4c-2.7,5.6-6,10.3-6,10.3s3.4-4.7,6.3-10.4c2.9-5.6,5.3-12.1,6.1-13.9
		c0.9-2.3,4.2-7,7.2-13.8c3-6.8,5.7-15.8,5.5-25.3c-0.3-9.1-2.7-16-6-21.9c-3.3-5.6-7.3-10.4-12.4-15c2.3,2.9,4.6,6.1,6.3,9.8
		c1.7,3.6,3.3,7.9,4.2,12.2c1,4.4,1.7,9.5,1.8,14.6c0.4,11.2-1.6,21.4-3.1,27.9c-1,3.9-2.1,7.6-3.4,10.8c0,0.1-0.1,0.3-0.1,0.3v0.1
		l0,0h-0.1l0,0c0,0,0,0,0-0.1c0,0,0-0.1,0.1-0.4c1-3.4,2.1-7,2.9-10.9c2.1-9.5,3-18.9,2.6-27.8c-0.3-9.1-2.1-18.2-5.1-25.3
		c-2.2-5.3-4.7-9-6-10.8c1.7,3,2.9,7.7,3.5,13.4c0.8,6.5,0.9,14.2,1.2,23.5c0.3,8.3,0.8,16.7,1,23.6c0.3,7,0.1,12.6-0.8,15.1
		C686.3,363.4,684.1,369.8,681.2,375.4z M710.9,320.3c0,0,1-5.5,1.7-11.6c0.7-6.1,0.9-12.6,1-14.7c0.1-2.5,1.8-7.7,2.6-14.9
		c0.8-7,0.8-16.2-2.3-24.9c-2.9-8.2-7.3-13.8-12.1-18.1c-4.7-4-9.8-7-15.6-10c3,2.1,5.9,4.6,8.5,7.3c2.7,2.9,5.3,6.3,7.4,9.8
		c2.3,3.9,4.4,8.2,6,12.6c2.9,7.9,4.7,16.9,5.2,26.4c0.3,3.9,0.3,7.6,0.1,10.8c0,0.1,0,0.3,0,0.3l0,0c0,0.1-0.1,0.1-0.1,0.1
		s-0.1,0-0.1-0.1c0,0,0,0,0-0.1c0-0.1,0-0.1,0-0.4c0-1.3-0.1-5.1-0.7-10.8c-0.9-9.5-2.9-18.2-5.7-26.2s-7.3-15.8-12.1-21.4
		c-3.5-4.2-6.8-6.9-8.5-8.2c2.2,2.3,4.6,6.4,6.8,11.5c2.6,5.7,5,12.6,7.9,21.1c2.6,7.6,5.6,14.9,7.9,21.1c2.3,6.3,3.9,11.5,3.9,14.1
		c0,2.1,0,8.6-0.7,14.6C711.9,314.9,710.9,320.3,710.9,320.3z M700,150.1c-1.2-1.8-2.9-6.5-6.3-11.9c-3.4-5.3-8.5-11.5-15-16
		c-6.3-4.3-11.9-6.3-17.3-7.4c-5.2-1.2-10.2-1.7-16-2.2c3.1,0.7,6.3,1.6,9.5,2.6c7.2,2.3,14.9,6.1,21.1,10.4
		c8.9,6,15,12.6,17.9,16.2c1.6,1.8,3.8,4.7,5.9,7.8c0,0.1,0.1,0.1,0.1,0.1s0,0,0,0.1s0,0.1-0.1,0.1l0,0l0,0c0,0,0,0-0.1,0
		c0,0-0.1-0.1-0.1-0.3c-1.7-2.5-3.8-5.1-6.1-7.7c-3-3.4-9.3-9.9-18-15.8c-6-4-12.9-7.7-19.7-10.2c-4.4-1.7-7.9-2.6-9.9-3.3
		c2.7,1,6.1,3.1,10.3,5.9c4.8,3.1,10.4,7,17.3,11.7c6.1,4.2,12.1,8.1,16.9,11.6s8.5,6.6,9.8,8.5c1,1.4,4.3,6.4,6.8,11.2
		c2.5,4.8,4.2,9.5,4.2,9.5s-1.7-4.8-4.2-9.8C704.2,156.6,700.9,151.7,700,150.1z M721.8,236.7c1.3,5.3,1.8,10.6,1.8,10.6
		s-0.4-5.2-1.6-10.7s-3-11.3-3.4-13.2c-0.5-2.2-0.7-7.3-1.8-13.8c-1.2-6.5-3.4-14.2-7.4-21.1c-3.9-6.6-8.1-10.8-12.2-14.6
		c-4.2-3.6-8.3-6.8-12.9-10.9c7.7,9.8,14.7,19.8,19.7,28.4c5.9,9.9,9.4,18.1,11.1,22.1c1.3,3.3,2.5,6.4,3.4,9.4
		c0,0.1,0.1,0.3,0.1,0.3l0,0c0,0.1,0,0.1-0.1,0.1l0,0c0,0,0,0-0.1-0.1c0,0-0.1-0.1-0.1-0.4c-0.4-1-1.7-4.4-3.8-9.1
		c-1.7-3.8-5.5-11.7-11.5-21.9c-6.9-11.6-13.9-21.8-17.3-26.6c-0.5-0.8-0.9-1.3-1.3-1.8c1.3,2.7,2.5,7,4.3,12.1
		c2,5.9,4.7,12.8,9.1,20.2c3.9,6.8,8.7,12.5,12.6,17.3c3.9,4.8,7.2,8.7,7.8,10.9C718.5,225.7,720.5,231.3,721.8,236.7z M663.5,85.3
		c2.5,3.9,4.7,6.5,5.3,8.1c0.5,1.2,2.1,5.1,3.9,8.6c1.8,3.4,3.8,6.4,3.8,6.4s-2-3-3.6-6.5s-3.4-7.4-3.6-8.7
		c-0.4-1.6-0.5-5.1-0.8-9.6c-0.3-4.4-0.5-9.8-1.7-15.1c-1-5-2.6-8.7-4.2-12.4c-1.4-3.4-3-6.8-4.2-10.9c0.1,1.2,0.4,3.8,0.9,7.2
		c0.8,5.1,2,11.2,3.1,16.8c2.9,13.3,6.5,23.6,6.6,23.7l0,0c0,0.1,0,0.1-0.1,0.1l0,0l0,0l0,0c-0.1-0.1-0.3-0.5-0.8-1.8
		c-0.4-1-1-2.9-1.8-5c-1.3-3.9-3.3-9.9-4.7-16.9c-2.3-10.7-3.3-20.3-3.5-23.8c-0.3,2.2-0.9,5.1-1.4,8.9c-0.5,4.4-0.8,10,0.7,16.4
		C658.4,76.5,661,81.6,663.5,85.3z M709.8,336.7c1.6-1.7,4.7-5.2,8.1-9c4.7-5.3,9.5-11.3,10.9-13.2c1.8-2.1,6.8-6,12.4-12.1
		c5.6-6,11.7-14.6,15-24.8c3.1-9.8,3.3-17.9,2.3-25.3c-0.9-7.2-2.6-13.7-4.6-21.2c0.3,2.1,0.9,6.8,1,13.3c0.1,4.8-0.1,17.6-4.4,30.9
		c-3,9.4-7.7,19-13.9,28.4c-3.6,5.5-6.5,9-7.4,10c-0.1,0.3-0.3,0.4-0.3,0.4h-0.1l0,0l0,0l0,0l0,0h-0.1l0,0c0,0,0,0,0-0.1
		c0-0.1,0.1-0.1,0.4-0.5c0.9-1.2,3.5-4.8,7-10.3c6-9.5,10.6-19.2,13.4-28.4c3.6-11.5,4.6-22,4.7-28.9c0.1-6.5-0.3-11.6-0.5-14.2
		c-0.1,3.9-1.2,9.3-2.9,15.8c-1.8,7.3-4.3,15.9-7.7,26.1c-2.9,9.1-5.7,18-8.3,25.4c-2.6,7.4-5.1,13.3-6.9,15.6
		c-1.4,2-6,7.9-10.6,13.3C714.5,331.3,711.3,334.9,709.8,336.7c5.9-13.6,10.4-27.6,13.4-42.1c5.9-27.1,6.6-55.4,2-82.5
		c-1.8-11.2-4.7-22.3-8.3-33c-0.3-1.7-0.5-3.8-0.7-5.9c-0.5-5.5-0.8-11.3-0.8-13.2c0-2.2,0.9-7,1.6-13.2c0.7-6.1,1.2-13.8,0-21.6
		c-1.2-7.4-3.4-13.2-6.3-18c-2.7-4.6-6-8.6-10.3-12.6c2.5,2.9,4.3,6,5.3,8.1c3,5.7,5.5,13.9,6.8,22.8c1.4,9.4,2,17.9,2.2,24.1
		l0.4,10.2c0,0.1,0,0.1-0.1,0.1l0,0c0,0-0.1,0-0.1-0.1l-0.8-10l-0.1-1.4c-0.4-6-1-14.1-2.5-22.7c-1.3-8.3-3.4-16-6-21.6
		c-2-4.3-4-7.3-5.3-8.9c1.4,2.5,2.7,6.3,3.8,11.1c1.2,5.6,2,12.4,3.3,20.7c1.2,7.6,2.9,14.7,4.4,20.7c1.6,6,3,10.6,3.1,12.8
		c0.1,1.8,0.5,7.7,1.2,13c0.3,2,0.5,3.8,0.8,5.3c-5.2-15.1-12-29.7-20.3-43.3c-9-14.5-19.7-27.9-31.8-39.6c-0.5-0.5-0.9-0.9-1.4-1.4
		c-6.8-6.5-14.1-12.5-21.8-18c-5.2-3.8-17.7-11.3-18.4-11.7c-0.4-0.3-0.7-0.5-1-0.8c-2.7-2.3-5.2-5.3-5.9-6.3
		c-0.8-1.2-1.8-4.4-3-8.3c-1.2-3.9-2.6-8.6-5-13c-4.3-8.1-9.4-11.5-15-17.3c0.7,1,2,2.9,3.4,5.5c2.2,3.6,4.8,8.6,7.4,13.4l0.1,0.3
		c3.1,6,5.9,10.6,7.9,13.8c1.3,2,2.6,3.9,3.6,5.3c0,0,0,0,0,0.1l0,0c0,0,0,0,0,0.1l-0.1,0.1l0,0c0,0,0,0-0.1,0l0,0
		c-0.5-0.7-2.1-2.5-4-5.2c-2.5-3.5-5.3-8.3-8.2-13.7l-6.9-13.2c-1.4-2.7-2.7-5-3.4-6.1c0.7,1.8,1,4.7,1.8,7.9
		c0.8,3.9,2,8.7,4.7,13.9c2.5,4.7,6,8.5,9.3,11.2c3.3,2.7,6,4.4,7,5.6c0.8,0.9,3.3,3.8,6.1,6c0.1,0.1,0.3,0.1,0.4,0.3
		c-8.9-5-18.2-9.3-27.8-12.8c0.7,0.1-8.1-2.9-12-4c-1.2-0.7-3.3-2.6-6.3-4.7c-3-2.2-7-4.6-11.7-5.5c-4.4-0.8-8.2-0.1-11.5,0.9
		c-3.1,1-6,2.5-9.1,3.9c0.9-0.3,3-0.7,5.7-1c1.7-0.3,3.5-0.3,5.3-0.3c2.9,0,5.9,0.3,8.5,0.8c5.7,1,10.8,2.9,13.6,3.8
		c1,0.4,2,0.8,3,1.2c0,0,0.1,0,0.1,0.1c0.3,0.1,0.4,0.1,0.7,0.3c0.7,0.3,1,0.4,1.3,0.5c0.1,0,0.3,0.1,0.3,0.1l0,0l0.1,0.1
		c0,0,0,0.1-0.1,0.1l0,0l0,0l-5.6-1.7l-0.3-0.1c0,0,0,0-0.1-0.1c-0.4-0.1-0.7-0.1-1-0.3c-3.6-1.2-7.7-2.2-12.2-3
		c-3.1-0.5-6.5-0.8-9.8-0.8c-1,0-2.2,0-3.1,0.1c-2.7,0.1-5,0.5-6.1,0.7c1.7,0.1,4.2,0.8,6.9,1.7c3.3,1,7,2.2,11.6,3.1
		c4.2,0.8,8.5,0.8,12.1,0.7s6.6-0.4,7.8,0.1c1,0.4,4.2,1,10.7,3.1c10.6,3.9,20.7,8.7,30.5,14.3c-3.8-0.9-10.2-2.3-11.7-2.9
		c-1.3-0.4-4-2.2-7.8-3.9c-3.8-1.7-8.7-3.3-14.1-2.9c-5.1,0.4-8.9,2.1-12,4c-3,2-5.7,4-8.9,6.4c1-0.5,3.1-1.4,5.9-2.5
		c2.9-1,8.6-3,15-3.5c1.3-0.1,2.6-0.1,4-0.1c3.6,0,7.3,0.4,11.5,1.2c2.1,0.4,4.2,0.9,6,1.3c0.1,0,0.1,0,0.1,0s0.1,0,0.1,0.1v0.1
		c0,0,0,0-0.1,0l0,0c0,0,0,0-0.3,0c-0.8-0.1-2.9-0.5-6-1c-2.5-0.4-6.3-0.8-10.6-0.8c-1.6,0-3.3,0.1-4.7,0.1
		c-9.1,0.8-16.8,3.8-20.1,5.1c-0.1,0-0.3,0.1-0.4,0.1c1.8-0.4,4.6-0.3,7.8-0.3c3.8,0,8.2,0.1,13.3-0.3c4.6-0.4,9-1.2,13-1.8
		c3.9-0.7,7-1.2,8.5-0.9l11.9,2.5c5.9,3.4,11.6,7.2,17.1,11.1c6.1,4.4,11.9,9.1,17.5,14.2c-0.8-0.5-1.4-0.9-1.8-1.2
		c-1.4-0.9-4.4-3.8-9.3-6.3c-4.7-2.5-10.9-4.6-17.3-4.8c-6.1-0.7-10.8,0.3-15.2,1.6c-4.2,1.2-8.1,2.6-12.8,3.9
		c1.4-0.1,4.3-0.5,8.1-0.8c5.5-0.5,10.2-0.8,14.5-0.8c1.7,0,3.4,0,5,0.1c7,0.3,14.2,1.6,19.4,3.4c2.7,0.9,5.1,2,7.3,3.3
		c0.1,0,0.1,0.1,0.1,0.1s0,0,0.1,0v0.1l0,0l0,0l0,0l0,0l0,0l0,0l0,0c0,0-0.1,0-0.3-0.1c-2.2-1.2-4.7-2.1-7.4-2.9
		c-5.2-1.6-12.2-2.6-19.4-3c-2-0.1-4-0.1-6.3-0.1c-4.6,0-8.6,0.1-12.1,0.4l-8.7,0.5c2.5,0.3,5.7,1,9.8,1.8
		c4.7,0.9,10.6,1.8,17.5,2.1c6.1,0.3,12,0,16.8,0.1c4.8,0.1,8.7,0.7,10.4,1.6c0.7,0.3,2,1,3.5,2.1c2.7,2.6,5.5,5.2,8.1,7.9l0.3,0.3
		c10.2,10.7,19.3,22.5,27.1,35.2c14.2,23.2,23.8,49.3,28.3,76.2c4.4,27.1,3.5,55-2.5,82c-6,26.8-16.8,52.6-32.1,75.3
		c-3.6,5.5-7.7,10.9-11.9,16c-0.8,0.8-1.3,1.4-1.4,1.6c0.1-0.1,0.5-0.7,1.3-1.3c-2.1,2.6-4.3,5.2-6.6,7.7
		c-11.5,12.8-24.4,24.1-38.6,33.6c-22.4,15.1-47.7,25.7-73.9,30.6c-6.1,1.2-12.4,2-18.6,2.6l-0.8,0.1l0,0l0,0
		c-0.4,0.3-0.8,0.4-1,0.7c1.8,0.1,3.4,0.3,5,0.5l6.9,0.8c3-0.4,6.1-0.9,9.1-1.6c26.6-5.2,52.1-15.9,74.8-31.4
		c13.6-9.3,26.1-20.2,37.1-32.4l0,0c0.5-0.7,1-1.2,1.7-1.8c0.4-0.4,0.7-0.8,1-1.2l0,0c3.8-4.3,7.3-8.7,10.7-13.3
		c0.3-0.1,0.5-0.3,0.8-0.4c5.1-3,10.9-5.5,12.8-6.3c2.2-0.9,7.4-1.3,14.1-3c3.4-0.8,7.3-2.5,10.7-4.3c3.5-1.8,7.2-4.2,10.6-7.2
		c6.4-5.6,9.9-11.6,12.4-17.6c2.3-5.7,3.5-11.6,4.6-18.2c-1,3.5-2.5,7-4.3,10.4c-1.8,3.5-4.2,7-6.8,10.3c-2.7,3.4-6,6.9-9.5,10
		c-7.6,6.6-15.5,12.1-21.6,14.9c-4.6,2.1-7.9,3.5-9.3,4c-0.4,0.1-0.5,0.3-0.7,0.3l-0.1-0.1h-0.1v-0.1c0,0,0.1-0.1,0.9-0.5
		c1.4-0.7,4.6-2.2,8.9-4.4c5.9-2.9,13.4-8.2,21.2-15.1c6.4-5.7,12.1-12.5,15.6-18.6c2.7-4.7,4.3-8.7,5.1-10.8
		c-1.6,2.9-4.6,6.4-8.6,10.2c-4.6,4.3-10.2,8.9-16.8,14.7c-3,2.6-5.9,5.5-8.6,8.1l-3.8,3.9c-1.2,1.2-2.5,2.3-3.6,3.5
		c-4.8,4.4-8.9,7.9-11.1,9c-1.8,0.9-7.6,3.5-12.5,6.6c0,0-0.1,0-0.1,0.1c2.2-3.1,4.4-6.3,6.5-9.4C698.4,360,704.7,348.5,709.8,336.7
		z M735,218.4l0.1-0.9c0.9-6.1,2.3-14.6,2.2-23.7c0-4.3-0.5-8.5-1.3-12.2c-0.7-3.4-1.8-6.8-3.1-10c-2.1-4.7-4.2-7.8-5.3-9.5
		c1.3,2.7,2.3,7,2.9,12c0.7,5.7,0.5,12.2,0.5,20.5c0,7.3,0.5,14.7,1.2,21.1c0.5,6.3,1.3,11.3,0.9,13.7c-0.4,1.8-1.3,7.8-2,13.3
		c-0.7,5.5-0.8,10.6-0.8,10.6s0.3-5.2,1-10.7c0.8-5.6,2-11.5,2.5-13.3c0.5-2.2,3.1-6.5,5.7-12.5c2.6-6,5.3-13.7,5.2-22.3
		c0-8.2-2.3-14.6-5.6-19.7c-3.1-5-7-8.9-11.5-13c1,1.2,3.3,4.2,5.6,8.6c1.7,3.3,3,7,3.9,10.7c0.9,3.9,1.4,8.3,1.6,12.9
		c0.1,9.8-1.6,18.2-2.9,24.6v0.1c-1,5-1.7,8.2-2.1,9.5c0,0.3-0.1,0.4-0.1,0.5l0,0c0,0,0,0.1-0.1,0.1l0,0h-0.1v-0.1l0,0L735,218.4z
		 M274.2,361.4c0.8,2,3.1,8.3,6.1,13.9c2.9,5.6,6.3,10.4,6.3,10.4s-3.3-4.7-6-10.3c-2.7-5.6-5-12-5.6-13.9
		c-0.9-2.5-0.9-8.2-0.8-15.1c0.3-7,0.8-15.2,1-23.6c0.3-9.4,0.4-17.1,1.2-23.5c0.7-5.7,1.8-10.4,3.5-13.4c-1.3,1.8-3.9,5.5-6,10.8
		c-3,6.9-4.8,16.2-5.1,25.3c-0.3,8.9,0.5,18.2,2.6,27.8c0.8,3.9,1.8,7.6,2.9,10.9c0.1,0.3,0.1,0.3,0.1,0.4c0,0,0,0,0,0.1l0,0
		c0,0,0,0-0.1,0l0,0c0,0,0,0,0-0.1c0,0,0-0.1-0.1-0.3c-1.2-3.3-2.3-6.9-3.4-10.8c-1.7-6.5-3.5-16.7-3.1-27.9
		c0.1-5.1,0.8-10,1.8-14.6c1-4.3,2.5-8.5,4.2-12.2c1.8-3.6,3.9-7,6.3-9.8c-5.1,4.7-9.1,9.4-12.4,15c-3.4,5.9-5.7,12.8-6,21.9
		c-0.3,9.5,2.5,18.5,5.5,25.3C270,354.4,273.3,359.1,274.2,361.4z M364.2,258c0-7.4-6-13.4-13.4-13.4h-13.4
		c-0.8,0.1-1.4,0.8-1.4,1.6V290c0,0.9,0.8,1.6,1.6,1.6c0.9,0,1.7-0.8,1.7-1.6v-18.6h11.5c0.1,0,0.1,0.1,0.4,0.1
		c0.9,0.1,3.4,0.9,5.5,2.3c2.1,1.6,3.8,3.6,3.8,7.2c0,3.9,0.5,6.3,1.3,7.7s2.2,2.2,3,2.2h0.1c0.4,0,0.8-0.1,0.8-0.1
		c0.9-0.4,1.3-1.3,1-2.2c-0.3-0.8-1-1.2-1.8-1c-0.1-0.1-0.4-0.4-0.7-1.2c-0.4-1-0.7-2.7-0.7-5.5c0-5.3-3.3-8.7-6.4-10.6
		c-0.3-0.1-0.5-0.3-0.7-0.4C361.1,268,364.2,263.5,364.2,258z M351.1,268.1h-11.9v-20.3h11.6c5.6,0,10.2,4.6,10.2,10.2
		C361,263.6,356.5,268,351.1,268.1z M228.2,229.1c0.5,1.8,1.7,7.7,2.5,13.3s1,10.7,1,10.7s-0.1-5.1-0.8-10.6
		c-0.7-5.5-1.7-11.5-2-13.3c-0.4-2.3,0.3-7.3,0.9-13.7c0.7-6.4,1.2-13.8,1.2-21.1c0-8.1,0-14.6,0.5-20.5c0.5-5.1,1.6-9.3,2.9-12
		c-1.2,1.7-3.4,4.8-5.3,9.5c-1.4,3.3-2.5,6.6-3.1,10c-0.8,3.8-1.2,7.8-1.3,12.2c-0.1,9.1,1.2,17.6,2.2,23.7l0.1,0.9l1.7,10.2l0,0
		v0.1c0,0,0,0-0.1,0l0,0c0,0-0.1,0-0.1-0.1l0,0c0,0,0-0.3-0.1-0.5c-0.3-1.3-1-4.7-2.1-9.5v-0.1c-1.2-6.3-2.9-14.9-2.9-24.6
		c0-4.6,0.5-9,1.6-12.9c0.9-3.8,2.2-7.4,3.9-10.7c2.3-4.6,4.6-7.4,5.6-8.6c-4.6,4.2-8.3,8.1-11.5,13c-3.3,5.2-5.5,11.6-5.6,19.7
		c0,8.6,2.7,16.3,5.2,22.3C225.1,222.5,227.7,227,228.2,229.1z M418,475.4c-3.3,0.5-6.6,1.3-9.9,2.1c-10.4,2.5-18.9,5-26.1,6.6
		c-6.4,1.6-11.6,2.6-15.4,2.7c2.5,0.3,7.4,0.8,13.8,0.7c8.7,0,18.8-1.3,28.4-3.5c3-0.7,6.1-1.4,9.5-2.5l2.6-4c0.4-0.7,0.9-1.3,1.6-2
		l0,0c-1,0-2.2,0-3.3-0.1H418z M402.8,465.3c3.5-0.1,7-0.4,9.6-0.5h-0.1c-2.6,0.1-5.9,0.3-9.3,0.4c-7.7,0.3-15.9,0.3-18.5,0.3
		c-3.3,0-9.9-1.7-18.2-4c-8.3-2.2-18.4-5-28.9-7.3c-11.7-2.5-21.4-4.3-29.4-6.1c-7-1.7-12.6-3.4-16.4-5.3c2.5,1.6,7,4.6,13.6,7.7
		c8.6,4.2,19.4,7.7,30.4,10.2c10.4,2.2,21.5,3.8,34,4.6c7,0.4,12,0.5,13.7,0.5c0.4,0,0.5,0,0.7,0l0,0h0.1l0,0l0,0l0,0v0.1h-0.1
		c-0.1,0-0.3,0-0.5,0c-0.8,0-2.5,0-4.8,0c-2.9,0-5.9,0-8.9-0.1c-12.4-0.4-23.6-1.8-34.1-4c-11.2-2.3-23.2-6.6-32.1-11.3
		c-4.4-2.3-8.6-5-12.4-7.8c6.5,6,12.2,10.8,18.9,15c6.9,4.4,14.6,8.1,25.1,10.3c11.1,2.3,22,2,30.7,0.9s15.4-2.6,18.5-2.9
		C386.8,465.8,395.1,465.7,402.8,465.3z M314.3,427c2.1,0.5,8.9,2.7,15,5.3c6.1,2.5,11.5,5.5,11.5,5.5s-5.2-3-11.2-5.6
		c-6-2.7-12.6-5.1-14.7-5.7c-2.6-0.9-7.4-4.3-13.9-8.1c-6.5-3.8-14.5-8.1-22.8-11.7c-9.3-3.9-16.9-6.8-23.2-9.6
		c-5.6-2.6-9.9-5.1-12.6-7.6c1.6,1.8,4.7,5.3,9.5,9.3c6.1,5.1,14.5,10,23.3,13.8c8.7,3.8,16.9,6.5,23.6,8.7c1.3,0.4,2.6,0.9,3.8,1.3
		c0.1,0,9.4,3.1,11.2,3.8l0.3,0.1l0,0h0.1v0.1c0,0,0,0-0.1,0l0,0l-11.6-3.4c-0.8-0.3-1.4-0.4-2.2-0.7c-7-2.1-15.9-4.7-25.3-8.7
		c-5-2.1-9.5-4.6-13.7-7c-3.9-2.5-7.7-5.2-10.9-8.2c-3.3-2.9-6.1-6-8.5-9.1c3.9,6.4,7.6,11.9,12.1,16.9c4.8,5.2,10.8,9.9,19.3,13.6
		c8.9,3.8,18,5.1,25.4,5.7C305.9,426.1,311.7,426.2,314.3,427z M293,93.4c0.7-1.6,2.9-4.2,5.3-8.1c2.5-3.9,5.1-8.9,6.4-14.6
		c1.4-6.4,1.2-12,0.7-16.4c-0.5-3.8-1.3-6.8-1.4-8.9c-0.3,3.5-1,13.2-3.5,23.8c-1.4,6.9-3.4,13-4.7,16.9c-0.8,2.2-1.4,3.9-1.8,5
		c-0.5,1.3-0.7,1.7-0.8,1.8l0,0l0,0l0,0c-0.1,0-0.1,0-0.1-0.1l0,0c0.1-0.1,3.8-10.4,6.6-23.7c1.3-5.6,2.3-11.7,3.1-16.8
		c0.5-3.3,0.8-5.9,0.9-7.2c-1.2,4.2-2.7,7.6-4.2,10.9c-1.6,3.6-3.1,7.3-4.2,12.4c-1.2,5.2-1.4,10.6-1.7,15.1
		c-0.3,4.4-0.4,8.1-0.8,9.6c-0.4,1.3-2,5.2-3.6,8.7s-3.6,6.5-3.6,6.5s2-3,3.8-6.4C290.7,98.6,292.4,94.7,293,93.4z M243.7,222.8
		c0.9-3,2.1-6.1,3.4-9.4c1.6-4,5.2-12.2,11.1-22.1c5.1-8.6,12-18.6,19.7-28.4c-4.6,4.2-8.7,7.4-12.9,10.9
		c-4.3,3.8-8.5,7.9-12.2,14.6c-4,6.9-6.3,14.7-7.4,21.1c-1.2,6.5-1.3,11.7-1.8,13.8c-0.5,1.8-2.3,7.6-3.4,13.2
		c-1.2,5.5-1.6,10.7-1.6,10.7s0.5-5.1,1.8-10.6c1.2-5.5,3.1-11.1,3.8-12.9c0.8-2.2,3.9-6.1,7.8-10.9c3.9-4.8,8.7-10.6,12.6-17.3
		c4.4-7.6,7.2-14.5,9.1-20.2c1.7-5.1,3-9.4,4.3-12.1c-0.4,0.5-0.8,1-1.3,1.8c-3.4,4.8-10.6,15-17.3,26.6c-6,10.2-9.8,18.1-11.5,21.9
		c-2.1,4.7-3.4,8.1-3.8,9.1c-0.1,0.1-0.1,0.3-0.1,0.4c0,0.1,0,0.1-0.1,0.1l0,0c-0.1,0-0.1,0-0.1-0.1l0,0
		C243.7,223.1,243.7,222.9,243.7,222.8z M306,118.8c4.2-2.7,7.6-4.8,10.3-5.9c-2,0.5-5.5,1.6-9.9,3.3c-6.8,2.6-13.7,6.1-19.7,10.2
		c-8.9,6-15.1,12.4-18,15.8c-2.3,2.6-4.3,5.2-6.1,7.7c-0.1,0.1-0.1,0.1-0.1,0.3c0,0,0,0-0.1,0l0,0l0,0c-0.1,0-0.1,0-0.1-0.1
		c0,0,0,0,0-0.1c0,0,0-0.1,0.1-0.1c2.1-3.1,4.3-6,5.9-7.8c2.9-3.5,9-10.2,17.9-16.2c6.3-4.3,13.9-8.1,21.1-10.4c3.1-1,6.4-2,9.5-2.6
		c-5.9,0.7-10.8,1-16,2.2c-5.5,1.2-11.1,3.1-17.3,7.4c-6.5,4.6-11.6,10.7-15,16c-3.4,5.3-5.2,10-6.3,11.9c-0.9,1.6-4.2,6.5-6.5,11.5
		c-2.5,5-4.2,9.8-4.2,9.8s1.7-4.7,4.2-9.5c2.5-4.8,5.7-9.8,6.8-11.2c1.3-1.8,5-5,9.8-8.5c4.8-3.5,10.8-7.4,16.9-11.6
		C295.6,125.9,301.2,122,306,118.8z M310.3,397.8c5,5.5,9.5,8.9,11.2,10.7c1.3,1.6,5.7,6.9,10.4,11.1c2.3,2.1,4.7,3.9,6.6,5.1
		c1.8,1.2,3.1,1.8,3.1,1.8s-1.3-0.7-3.1-1.8s-4.2-3-6.4-5.1c-4.6-4.2-8.7-9.5-10-11.2c-1.6-2.1-3.5-7.4-5.5-14.2
		c-2.1-6.8-4.2-14.9-7-22.9c-3.3-9-6.3-16.3-8.3-22.5c-1.8-5.5-2.9-10.2-2.6-13.6c-0.8,3.9-1,8.1-0.8,12.4
		c0.4,7.4,2.3,16.4,5.5,25.4c3.8,10.9,8.5,19.8,11.9,25.3c2.1,3.4,4.2,6.6,6.3,9.4c0.1,0.1,0.1,0.3,0.1,0.3l0,0l0,0
		c0,0,0,0.1-0.1,0.1l0,0h-0.1c0,0-0.1-0.1-0.1-0.3c-2.2-2.7-4.4-5.7-6.6-9.1c-3.5-5.5-8.5-14.2-12.4-25.3
		c-3.3-9.1-5.2-19.3-5.2-27.2c0-4,0.4-8.2,1.3-11.6c-2.6,6.5-3.9,12.6-4.6,19c-0.5,6.8,0,13.9,2.9,22.4
		C299.9,384.9,305.2,392.4,310.3,397.8z M264,374.1c1.8,0.7,7.7,3.3,12.8,6.3c0.3,0.1,0.5,0.3,0.8,0.4c4.2,5.6,8.6,11.1,13.3,16.3
		c11.1,12.2,23.6,23.2,37.3,32.4c22.5,15.5,48.2,26.2,74.8,31.4c4.2,0.8,8.3,1.4,12.5,2l3.1-0.8c1.6-0.4,3.3-0.7,5.3-0.9
		c-0.4-0.3-0.8-0.4-1.2-0.7c-0.1,0-0.1-0.1-0.3-0.1c-6.4-0.5-12.9-1.4-19.2-2.6c-26.2-5-51.5-15.4-73.9-30.6
		c-13.6-9.1-25.9-19.9-37-32.1c-2.7-3-5.5-6.1-8.1-9.4c0.8,0.8,1.2,1.2,1.3,1.3c-0.1-0.1-0.7-0.8-1.4-1.6c-4.2-5.2-8.1-10.6-11.9-16
		c-15.2-22.8-26.1-48.5-32.1-75.3s-6.9-54.9-2.5-82c4.4-27.1,14.1-53.2,28.3-76.2c7.7-12.6,16.8-24.5,27.1-35.2l0.3-0.3
		c2.6-2.7,5.3-5.5,8.1-7.9c1.6-1,2.9-1.8,3.5-2.1c1.7-0.9,5.6-1.4,10.4-1.6c4.8-0.1,10.7,0.3,16.8-0.1c6.9-0.4,12.6-1.2,17.5-2.1
		c4.2-0.8,7.4-1.6,9.8-1.8l-8.7-0.5c-3.5-0.1-7.7-0.4-12.1-0.4c-2.2,0-4.3,0-6.3,0.1c-7.2,0.3-14.2,1.4-19.4,3
		c-2.7,0.8-5.2,1.8-7.4,2.9c-0.1,0.1-0.3,0.1-0.3,0.1l0,0l0,0l0,0l0,0l0,0l0,0l0,0v-0.1c0,0,0,0,0.1,0c0,0,0.1,0,0.1-0.1
		c2.1-1.2,4.6-2.3,7.3-3.3c5.2-1.8,12.4-3,19.4-3.4c1.6-0.1,3.3-0.1,5-0.1c4.3,0,9.1,0.3,14.5,0.8c3.8,0.4,6.6,0.7,8.1,0.8
		c-4.7-1.2-8.6-2.7-12.8-3.9c-4.4-1.3-9.1-2.2-15.4-2c-6.5,0.3-12.8,2.3-17.3,4.8c-4.7,2.5-7.7,5.3-9.3,6.3c-0.4,0.3-1,0.7-1.8,1.2
		c5.6-5.1,11.3-9.8,17.5-14.2c5.5-4,11.2-7.7,17.1-11.1l11.9-2.5c1.4-0.3,4.6,0.3,8.5,0.9c3.9,0.7,8.5,1.6,13,1.8
		c5.1,0.4,9.5,0.3,13.3,0.3c3.3,0,5.9-0.1,7.8,0.3c-0.1,0-0.3-0.1-0.4-0.1c-3.3-1.3-10.9-4.3-20.1-5.1c-1.6-0.1-3.1-0.1-4.7-0.1
		c-4.3,0-8.1,0.5-10.6,0.8c-3.1,0.4-5.3,0.9-6,1c-0.3,0-0.3,0-0.3,0l0,0c0,0,0,0-0.1,0c0,0-0.1-0.1,0-0.1c0,0,0-0.1,0.1-0.1
		c0,0,0,0,0.1,0c1.8-0.5,3.9-0.9,6-1.3c4.2-0.8,7.8-1.2,11.5-1.2c1.3,0,2.7,0,4,0.1c6.4,0.5,12.1,2.3,15,3.5c2.9,1,4.8,2,5.9,2.5
		c-3.1-2.2-5.9-4.4-8.9-6.4c-3.3-2-6.9-3.6-12-4c-5.3-0.4-10.4,1.2-14.1,2.9c-3.8,1.7-6.5,3.5-7.8,3.9c-1.6,0.4-7.8,2-11.7,2.9
		c9.8-5.6,19.9-10.4,30.5-14.3c6.4-2.1,9.6-2.7,10.7-3.1c1.3-0.4,4.2-0.1,7.8-0.1c3.6,0.1,7.9,0.1,12.1-0.7
		c4.6-0.8,8.3-2.1,11.6-3.1c2.7-0.9,5.2-1.6,6.9-1.7c-1.2-0.1-3.4-0.5-6.1-0.7c-1,0-2.1-0.1-3.1-0.1c-3.3,0-6.6,0.3-9.8,0.8
		c-4.6,0.8-8.6,2-12.2,3c-0.4,0.1-0.7,0.1-1,0.3c0,0,0,0-0.1,0.1l-0.3,0.1l-5.6,1.7l0,0l0,0c0,0-0.1,0-0.1-0.1c0,0,0-0.1,0.1-0.1
		l0,0c0,0,0.1,0,0.3-0.1c0.3-0.1,0.8-0.3,1.3-0.5c0.3-0.1,0.5-0.1,0.7-0.3c0,0,0-0.1,0.1-0.1c1-0.4,2-0.8,3-1.2
		c2.7-1,7.8-2.9,13.6-3.8c2.6-0.5,5.6-0.8,8.5-0.8c1.8,0,3.8,0.1,5.3,0.3c2.7,0.3,4.7,0.8,5.7,1c-3.3-1.4-6-2.9-9.1-3.9
		c-3.3-1-6.9-1.7-11.5-0.9c-4.7,0.8-8.7,3.3-11.7,5.5c-2.9,2.1-5.1,4-6.3,4.7c-3.9,1.2-12.8,4.2-12,4c-9.5,3.5-18.8,7.8-27.8,12.8
		c0.1-0.1,0.3-0.1,0.4-0.3c2.7-2.2,5.3-5.1,6.1-6c0.9-1.2,3.8-2.9,7-5.6c3.3-2.7,6.8-6.5,9.3-11.2c2.7-5.2,3.9-10,4.7-13.9
		c0.7-3.4,1-6.1,1.8-7.9c-0.7,1.2-2,3.3-3.4,6.1l-6.9,13.2c-2.9,5.3-5.7,10.3-8.2,13.7c-2,2.7-3.4,4.6-4,5.2l0,0c0,0,0,0-0.1,0l0,0
		c0,0-0.1,0-0.1-0.1c0,0,0,0,0-0.1l0,0c0,0,0,0,0-0.1c1.2-1.4,2.3-3.4,3.6-5.3c2.1-3.3,4.7-7.8,7.9-13.8l0.1-0.3
		c2.6-4.8,5.2-9.8,7.4-13.4c1.6-2.6,2.7-4.4,3.4-5.5c-5.6,5.9-10.6,9.3-15,17.3c-2.3,4.4-3.8,9-5,13c-1.2,3.9-2.2,7-3,8.3
		c-0.7,1-3.1,4-5.9,6.3c-0.4,0.3-0.7,0.5-1,0.8c-0.7,0.4-13,7.9-18.4,11.7c-7.7,5.5-14.9,11.5-21.8,18c-0.5,0.5-0.9,0.9-1.4,1.4
		c-12.1,11.7-22.8,25.1-31.8,39.6c-8.6,13.9-15.4,28.5-20.6,43.6c0.3-1.6,0.5-3.5,0.8-5.3c0.7-5.3,1-11.2,1.2-13
		c0.1-2.3,1.6-6.9,3.1-12.8c1.6-6,3.3-13.2,4.4-20.7c1.3-8.3,2.1-15.2,3.3-20.7c0.9-4.7,2.2-8.6,3.8-11.1c-1.3,1.7-3.4,4.6-5.3,8.9
		c-2.6,5.5-4.7,13.2-6,21.6c-1.4,8.6-2,16.8-2.5,22.7l-0.1,1.4l-0.8,10c0,0.1,0,0.1-0.1,0.1l0,0c-0.1,0-0.1,0-0.1-0.1l0.4-10.2
		c0.3-6.3,0.8-14.7,2.2-24.1c1.3-8.7,3.9-17.1,6.8-22.8c1-2.1,2.9-5.2,5.3-8.1c-4.3,3.9-7.6,7.9-10.3,12.6c-2.9,5-5.1,10.6-6.3,18
		c-1.2,7.8-0.7,15.5,0,21.6c0.7,6.3,1.6,10.9,1.6,13.2c0,1.8-0.3,7.7-0.8,13.2c-0.1,2.1-0.4,4.2-0.7,5.9c-3.6,10.7-6.4,21.8-8.3,33
		c-4.6,27.2-3.9,55.4,2,82.5c3.1,14.3,7.6,28.5,13.4,42c-1.6-1.7-4.6-5.2-7.8-9c-4.6-5.3-9.1-11.3-10.6-13.3
		c-1.8-2.3-4.2-8.2-6.9-15.6c-2.7-7.4-5.5-16.4-8.3-25.4c-3.3-10.2-5.7-18.6-7.7-26.1c-1.6-6.5-2.7-11.9-2.9-15.8
		c-0.3,2.6-0.7,7.6-0.5,14.2c0.1,6.9,1,17.5,4.7,28.9c2.9,9.4,7.4,18.9,13.4,28.4c3.5,5.5,6.1,9.1,7,10.3c0.3,0.3,0.3,0.4,0.4,0.5
		c0,0,0,0,0,0.1l0,0h-0.1l0,0l0,0l0,0l0,0h-0.1c0,0-0.1-0.1-0.3-0.4c-0.9-1.2-3.8-4.7-7.4-10c-6.4-9.4-11.1-18.9-13.9-28.4
		c-4.3-13.3-4.4-25.9-4.4-30.9c0.1-6.4,0.8-11.2,1-13.3c-2,7.7-3.6,14.2-4.6,21.2c-0.9,7.4-0.8,15.5,2.3,25.3
		c3.3,10.2,9.5,18.8,15,24.8c5.6,6.1,10.6,9.9,12.4,12.1c1.6,1.8,6.3,7.8,10.9,13.2c3.3,3.8,6.5,7.3,8.1,9
		c5.1,12,11.3,23.5,18.5,34.1c2.1,3.3,4.3,6.4,6.5,9.4c0,0-0.1,0-0.1-0.1c-5-3.1-10.7-5.7-12.5-6.6c-2.2-1-6.3-4.6-11.1-9
		c-1.2-1.2-2.5-2.3-3.6-3.5l-3.8-3.9c-2.7-2.7-5.6-5.5-8.6-8.1c-6.6-5.9-12.2-10.4-16.8-14.7c-4-3.8-7-7.3-8.6-10.2
		c0.8,2.1,2.2,6,5.1,10.8c3.6,6.3,9.3,13,15.6,18.6c7.8,6.9,15.4,12.2,21.2,15.1c4.3,2.2,7.4,3.6,8.9,4.4c0.8,0.4,0.9,0.4,0.9,0.5
		v0.1h-0.1l-0.1,0.1c0,0-0.3-0.1-0.7-0.3c-1.3-0.5-4.7-2-9.3-4c-6.1-2.7-14.1-8.2-21.6-14.9c-3.5-3.1-6.8-6.6-9.5-10
		c-2.6-3.3-4.8-6.8-6.8-10.3c-1.8-3.4-3.3-6.9-4.3-10.4c1,6.6,2.3,12.5,4.6,18.2c2.5,6,6,12,12.4,17.6c3.3,2.9,6.9,5.2,10.6,7.2
		c3.5,1.8,7.4,3.5,10.7,4.3C256.6,372.8,261.8,373.2,264,374.1z M364.8,437.9c6.6,3.1,12.2,4.7,14.5,5.7c1.8,0.9,7.8,4.4,13.7,6.8
		c5.9,2.5,11.5,3.9,11.5,3.9s-5.5-1.4-11.2-4c-5.7-2.5-11.6-6-13.4-7c-2.2-1.4-6-5.7-10.4-11.2c-4.4-5.6-9.6-12.4-15.6-18.8
		c-6.6-7.2-12.5-12.8-17.3-17.6c-4.2-4.2-7.6-7.8-9.4-10.8c0.9,2.2,2.9,6.3,5.9,11.3c4.2,7,9.8,14.5,15.8,21.1
		c8.3,9.3,16.7,15.9,20.8,19.2c3.3,2.5,6.4,4.6,9.4,6.5c0.1,0.1,0.3,0.1,0.3,0.1l0,0l0,0H379l0,0l0,0l-0.1,0.1c0,0-0.1,0-0.3-0.1
		c-3-1.7-6.3-3.8-9.5-6.1c-5.2-3.6-13.2-10-21.2-18.8c-6.3-6.8-12.4-15.4-16.3-22.8c-1.4-2.6-3.4-6.5-5-10.9c1.6,7,3.1,13,5.5,19.2
		c2.5,6.3,5.7,12.6,11.9,19.3C350.3,429.8,358.1,434.8,364.8,437.9z M379,443.1L379,443.1L379,443.1L379,443.1z M252.7,280.3
		c2.3-6.3,5.3-13.7,7.9-21.1c3-8.3,5.3-15.2,7.9-21.1c2.2-5.1,4.6-9.1,6.8-11.5c-1.7,1.3-5,4-8.5,8.2c-4.8,5.6-9.3,13.4-12.1,21.4
		c-2.9,7.9-4.8,16.7-5.7,26.2c-0.5,5.7-0.5,9.5-0.7,10.8c0,0.1,0,0.3,0,0.4v0.1c0,0,0,0.1-0.1,0.1c0,0-0.1,0-0.1-0.1l0,0
		c0,0,0-0.1,0-0.3c-0.1-3.4-0.1-7,0.1-10.8c0.5-9.5,2.3-18.5,5.2-26.4c1.6-4.4,3.6-8.9,6-12.6c2.1-3.5,4.7-6.9,7.4-9.8
		c2.6-2.9,5.5-5.2,8.5-7.3c-5.9,3-10.9,6-15.6,10c-4.8,4.3-9.3,9.8-12.1,18.1c-3,8.7-3.1,17.7-2.3,24.9c0.8,7.2,2.5,12.5,2.6,14.9
		c0.1,2,0.4,8.6,1,14.7c0.7,6.1,1.7,11.6,1.7,11.6s-0.9-5.5-1.6-11.5c-0.7-6-0.7-12.5-0.7-14.6C248.8,291.7,250.5,286.5,252.7,280.3
		z M626.4,461.5c-10.6,2.3-21.8,3.6-34.1,4c-3,0.1-6,0.1-8.9,0.1c-2.3,0-4,0-4.8,0c-0.3,0-0.4,0-0.5,0l0,0l0,0h-0.1v-0.1l0,0
		c0,0,0,0,0.1,0s0.3,0,0.7,0c1.6,0,6.6-0.1,13.7-0.5c12.5-0.8,23.6-2.3,34-4.6c10.9-2.3,21.8-6,30.4-10.2c6.5-3.1,11.1-6.1,13.6-7.7
		c-3.8,2-9.4,3.6-16.4,5.3c-7.9,1.8-17.7,3.6-29.4,6.1c-10.6,2.2-20.6,5-28.9,7.3c-8.3,2.2-15,4-18.2,4c-2.6,0-10.8,0.1-18.5-0.3
		c-3.8-0.1-7.3-0.3-10-0.4h-0.1c2.7,0.1,6.5,0.4,10.3,0.7c7.7,0.4,16.2,0.5,18.6,0.7c3.1,0.1,9.8,1.8,18.5,2.9
		c8.7,1,19.7,1.4,30.7-0.9c10.6-2.2,18.2-6,25.1-10.3c6.5-4.3,12.4-9.1,18.9-15c-3.8,2.9-7.9,5.5-12.4,7.8
		C649.6,455,637.7,459.2,626.4,461.5z M592.8,291.7c0.9,0,1.6-0.8,1.6-1.6v-38.7l28.3,39.3c0.1,0.1,0.3,0.3,0.3,0.3
		c0.4,0.4,0.8,0.7,1.3,0.7c0.9,0,1.7-0.8,1.7-1.6v-43.4c0-0.9-0.8-1.6-1.7-1.6c-0.9,0-1.6,0.8-1.6,1.6v38.3l-28.5-39.6
		c-0.5-0.8-1.6-0.9-2.3-0.4c-0.7,0.5-0.8,1.2-0.7,1.8v43.3C591.2,290.9,592,291.7,592.8,291.7z M417.4,483.6h-0.1v-0.1l0.3-0.4
		c-2.7,0.8-5.5,1.4-8.1,2.1c-8.6,2.1-18.1,3.1-26.7,3.1c-1.2,0-2.2,0-3.4,0c-4.4-0.1-8.9-0.5-13-1.2c7.6,2.1,13.9,3.9,20.8,5
		c7.2,1,14.9,1.3,24.4-0.9c5.6-1.3,10.7-3.4,15.4-5.6l-0.5,0.1h-0.1v-0.1l2.7-4.7c0-0.1,0.1-0.1,0.1-0.3c-1.7,0.4-3.4,0.9-4.8,1.3
		L417.4,483.6z M639.7,408.3c-1.3,1.7-5.5,7-10,11.2c-2.2,2.1-4.6,3.9-6.4,5.1s-3.1,1.8-3.1,1.8s1.3-0.7,3.1-1.8s4.3-3,6.6-5.1
		c4.7-4.2,9-9.5,10.4-11.1c1.7-1.8,6.3-5.2,11.2-10.7c5-5.3,10.4-12.9,13.6-21.8c3-8.5,3.5-15.6,2.9-22.4c-0.7-6.4-2-12.5-4.6-19
		c0.9,3.5,1.3,7.6,1.3,11.6c0,7.8-2,18-5.2,27.2c-3.8,10.9-8.9,19.8-12.4,25.3c-2.2,3.4-4.4,6.5-6.6,9.1c-0.1,0.1-0.1,0.1-0.1,0.3
		c0,0,0,0-0.1,0l0,0c0,0-0.1,0-0.1-0.1l0,0c0,0,0,0,0-0.1c0,0,0.1-0.1,0.1-0.3c2.1-2.9,4.2-6,6.3-9.4c3.3-5.5,8.1-14.5,11.9-25.3
		c3.1-9,5.1-18,5.5-25.4c0.3-4.3,0-8.5-0.8-12.4c0.1,3.4-0.8,8.2-2.6,13.6c-2.1,6.3-5.1,13.6-8.3,22.5c-2.9,8.1-5.1,16.2-7,22.9
		C643.2,400.9,641.2,406.3,639.7,408.3z M568.9,450.4c5.9-2.3,11.9-5.9,13.7-6.8c2.2-1.2,7.7-2.6,14.5-5.7c6.6-3.1,14.5-8.1,20.8-15
		c6-6.6,9.4-13,11.9-19.3c2.3-6.1,3.9-12.1,5.5-19.2c-1.7,4.4-3.6,8.3-5,10.9c-3.9,7.4-10,16-16.3,22.8
		c-7.9,8.9-15.9,15.1-21.2,18.8c-3.3,2.3-6.5,4.4-9.5,6.1c-0.1,0.1-0.3,0.1-0.3,0.1l-0.1-0.1l0,0h-0.1l0,0l0,0c0,0,0.1-0.1,0.3-0.1
		c3-1.8,6.1-4,9.4-6.5c4.2-3.1,12.4-9.8,20.8-19.2c6.1-6.6,11.7-14.2,15.8-21.1c3-5.1,4.8-9.3,5.9-11.3c-1.8,3-5.1,6.6-9.4,10.8
		c-4.8,4.8-10.7,10.4-17.3,17.6c-6,6.5-11.1,13.3-15.6,18.8c-4.4,5.6-8.2,9.9-10.4,11.2c-1.8,1.2-7.7,4.6-13.4,7
		c-5.7,2.6-11.2,4-11.2,4C557.5,454.3,563.1,452.9,568.9,450.4z M563.3,290v-43.9c0-0.9-0.8-1.6-1.7-1.6c-0.9,0-1.6,0.8-1.6,1.6V290
		c0,0.9,0.8,1.6,1.6,1.6C562.5,291.7,563.3,290.9,563.3,290z M476.9,265.5c2.7-2.2,4.6-5.5,4.6-9.1c0-6.5-5.2-11.7-11.7-11.7h-10.6
		c-0.9,0-1.6,0.8-1.6,1.6v43.9c0,0.9,0.7,1.6,1.6,1.6h13.6c7.4,0,13.4-6,13.4-13.4C486.2,272.3,482.3,267.2,476.9,265.5z
		 M460.9,247.8h8.9c4.7,0,8.5,3.8,8.5,8.5c0,4.6-3.8,8.3-8.5,8.3h-8.9V247.8z M472.6,288.3h-11.7V268h11.7c5.6,0,10,4.6,10.2,10.2
		C482.8,283.9,478.2,288.3,472.6,288.3z M579.2,488.3c-8.6,0-18.1-1.2-26.7-3.1c-2.9-0.7-5.7-1.4-8.9-2.3l0.4,0.7c0,0,0,0,0,0.1
		s0,0.1-0.1,0.1l0,0l-6.1-2c-1.6-0.5-3-0.9-4.6-1.2l2.3,2.6v0.1c0,0,0,0.1-0.1,0.1l-3.3,0.8c5.5,2.7,11.6,5.5,18.2,7
		c9.4,2.2,17.1,2,24.4,0.9c6.9-1,13.4-2.9,20.8-5c-4.2,0.7-8.6,1-13,1.2C581.4,488.3,580.4,488.3,579.2,488.3z M538.3,278.2
		c0-5.9-3.9-10.9-9.3-12.8c2.7-2.2,4.6-5.5,4.6-9.1c0-6.5-5.2-11.7-11.7-11.7h-10.6c-0.9,0-1.6,0.8-1.6,1.6V290
		c0,0.9,0.7,1.6,1.6,1.6h13.6C532.2,291.7,538.3,285.7,538.3,278.2z M513,247.8h8.9c4.7,0,8.5,3.8,8.5,8.5c0,4.6-3.8,8.3-8.5,8.3
		H513V247.8z M524.8,288.3H513V268h11.7c5.6,0,10,4.6,10.2,10.2C534.9,283.9,530.4,288.3,524.8,288.3z M411.8,243.9
		c-12.8,0-22.7,10.7-22.8,23.8c0.1,13.2,10,23.8,22.8,23.8c12.6,0,22.5-10.7,22.5-23.8C434.3,254.6,424.4,243.9,411.8,243.9z
		 M411.8,288.3c-10.7,0-19.4-9.1-19.4-20.6c0-11.6,8.7-20.6,19.4-20.6c10.4,0,19.2,8.9,19.2,20.6
		C430.9,279.2,422.2,288.3,411.8,288.3z M711.6,398.4c-3.3,2.9-7,5.7-10.9,8.2c-4,2.6-8.7,5-13.7,7c-9.5,4-18.2,6.6-25.3,8.7
		c-0.8,0.3-1.6,0.5-2.2,0.7l-11.6,3.4l0,0c0,0,0,0-0.1,0v-0.1c0,0,0,0,0.1,0l0,0l0.3-0.1c2-0.8,11.1-3.8,11.2-3.8
		c1.2-0.4,2.5-0.8,3.8-1.3c6.6-2.2,15-5,23.6-8.7c9-3.8,17.3-8.7,23.3-13.8c4.7-3.9,7.9-7.4,9.5-9.3c-2.7,2.5-7.2,5-12.6,7.6
		c-6.3,2.9-13.9,5.7-23.2,9.6c-8.3,3.5-16.3,7.8-22.8,11.7c-6.5,3.8-11.3,7.2-13.9,8.1c-2.1,0.7-8.7,3.1-14.7,5.7
		s-11.2,5.6-11.2,5.6s5.3-3,11.5-5.5c6.1-2.6,12.9-4.8,15-5.3c2.6-0.7,8.3-0.8,15.8-1.4c7.4-0.7,16.5-2,25.4-5.7
		c8.5-3.6,14.5-8.3,19.3-13.6c4.6-5.1,8.3-10.4,12.1-16.9C717.7,392.6,714.9,395.6,711.6,398.4z M552.9,484
		c9.5,2.2,19.7,3.5,28.4,3.5c0.3,0,0.5,0,0.9,0c6,0,10.7-0.4,13-0.7c-3.8-0.1-9-1.2-15.4-2.7c-7.2-1.8-15.6-4.2-26.1-6.6
		c-3.8-0.9-7.7-1.7-11.3-2.2l0,0c-0.1,0-0.3,0-0.3,0c-0.9,0.3-1.8,0.4-2.7,0.4c0.7,0.7,1.2,1.4,1.6,2.2l2,3.6
		C546.4,482.5,549.8,483.3,552.9,484z"/>
</g>
</svg>
